<?xml version="1.0" encoding="UTF-8" standalone="no"?><svg xmlns="http://www.w3.org/2000/svg" xmlns:xlink="http://www.w3.org/1999/xlink"><symbol id="family-pants" xmlns="http://www.w3.org/2000/svg" viewBox="0 0 512 512"><path d="M128 0a64 64 0 1 1 0 128A64 64 0 1 1 128 0zM105.6 160l44.8 0c9.2 0 18.1 1.6 26.4 4.5c-.5 3.8-.8 7.6-.8 11.5c0 24.3 10.9 46.1 28 60.8c-35.7 18.7-60 56.1-60 99.2l0 16c0 28.4 12.4 54 32 71.6l0 56.4c0 6.1 .8 11.9 2.4 17.5c-8.7 9-20.9 14.5-34.4 14.5l-32 0c-26.5 0-48-21.5-48-48l0-115.7c-26.5-9.5-44.7-35.8-42.2-65.6l4.1-49.3C29.3 191.9 64 160 105.6 160zM368 512c-13.5 0-25.7-5.6-34.4-14.5c1.6-5.5 2.4-11.4 2.4-17.5l0-56.4c19.6-17.6 32-43.1 32-71.6l0-16c0-43.1-24.3-80.5-60-99.2c17.1-14.7 28-36.5 28-60.8c0-3.9-.3-7.8-.8-11.5c8.3-2.9 17.2-4.5 26.4-4.5l44.8 0c41.6 0 76.3 31.9 79.7 73.4l4.1 49.3c2.5 29.8-15.7 56.1-42.2 65.6L448 464c0 26.5-21.5 48-48 48l-32 0zM384 0a64 64 0 1 1 0 128A64 64 0 1 1 384 0zM256 128a48 48 0 1 1 0 96 48 48 0 1 1 0-96zm0 128c44.2 0 80 35.8 80 80l0 16c0 23.7-12.9 44.4-32 55.4l0 72.6c0 17.7-14.3 32-32 32l-32 0c-17.7 0-32-14.3-32-32l0-72.6c-19.1-11.1-32-31.7-32-55.4l0-16c0-44.2 35.8-80 80-80z"></path></symbol><symbol id="BOOGSCHUTTER" xmlns="http://www.w3.org/2000/svg" viewBox="0 0 494.28 509.95"><title>Sagittarius</title><g data-name="Слой 2"><g data-name="Слой 1"><path d="M494,143.31c-.75-23.27-3.47-47-10.33-70.68a190.52,190.52,0,0,0-14-34.54A196.92,196.92,0,0,0,449,7,19,19,0,0,0,434,0h-.31a820.13,820.13,0,0,0-93.16,7,596.46,596.46,0,0,0-91.92,19.54,486.72,486.72,0,0,0-87,35.28,412,412,0,0,0-77.21,52c28.34-12.42,56.52-23.82,85.19-33.21a758,758,0,0,1,86.85-23c29.25-6,58.81-10.1,88.56-13.2q23.15-2.31,46.45-3.8c-59.46,70.75-120,140.75-180.71,210.73Q192,272.9,173.26,294.47A413.2,413.2,0,0,0,94.18,257.3c-7.37-2.77-15.12-4.7-22.72-6.8-7.54-2.28-15.46-3.48-23.19-5l-5.82-1c-2-.25-4-.44-5.93-.62-4-.36-7.87-.76-11.8-1-7.85-.58-15.85,0-23.58.34,30.11,8.55,57.8,20.44,84.94,33.76,23.67,11.67,46.67,24.58,69.19,38.28-51.36,59.24-102.64,118.6-153,178.84a9.69,9.69,0,0,0,14.67,12.65l0,0c53-59.59,107-118.38,161.12-177.11,20.91,13.61,41.35,27.95,61.08,43.28,23.85,18.6,46.67,38.29,67.71,61.48-3.1-7.11-6.15-14.5-10.1-21.31-2-3.42-4.06-6.76-6.11-10.15l-3.16-5.05L284,393a299.55,299.55,0,0,0-30.69-36.1,406.93,406.93,0,0,0-56.79-47.4q17.9-19.42,35.8-38.85C299.68,197.57,367,124.41,433.25,49.94a171.83,171.83,0,0,1,16.93,33.81c7.26,19.38,11.85,40.57,15.43,62.29s6.09,44.05,8.53,66.49l3.73,33.79c1.25,11.3,2.52,22.63,4.13,34,2.22-11.26,4.06-22.54,5.61-33.86s3-22.67,4-34.07A556.27,556.27,0,0,0,494,143.31Z"></path></g></g></symbol><symbol id="LEEUW" xmlns="http://www.w3.org/2000/svg" viewBox="0 0 515.44 507.57"><title>Leo</title><g data-name="Слой 2"><g data-name="Слой 1"><path d="M510.92,393.19a64.85,64.85,0,0,0-17.54-25.26c-7.85-7.24-18.24-10.82-28.22-11.62a55.49,55.49,0,0,0-29.11,5.54,40.24,40.24,0,0,0-11.72,8.91,33.21,33.21,0,0,0-7,12.62c3.72-8.94,11.41-15.43,20-18.77a51.06,51.06,0,0,1,27.13-2.46c8.94,1.55,17.37,5.38,23.16,11.79a55.15,55.15,0,0,1,13.13,22.73c4.86,16.84,1.64,35.48-7.55,50A79.36,79.36,0,0,1,485.22,457a85.41,85.41,0,0,1-9.4,9.15,82.17,82.17,0,0,1-22.2,13.13c-16,6.43-33.93,7.9-51.43,5.69s-34.83-7.73-49-16.76a100.88,100.88,0,0,1-34-36.7A107,107,0,0,1,310,407.88a187.09,187.09,0,0,1-5.12-26.17,239.59,239.59,0,0,1-.38-53.81A281.54,281.54,0,0,1,315,274.8c1.27-4.39,2.73-8.48,4.22-13l4.73-13.75c3.11-9.22,6.12-18.53,8.95-27.93a568.88,568.88,0,0,0,14.42-57.59c3.75-19.66,6.12-39.9,5.66-61A158.2,158.2,0,0,0,349,69.21C346.42,58.28,342.3,47,335.36,36.64a78.32,78.32,0,0,0-27.79-25.4A96,96,0,0,0,273.26.85,138.39,138.39,0,0,0,256.49,0c-2.69,0-5.73.24-8.58.36-2.89.31-5.79.59-8.69,1.09-11.54,2-23.17,5.7-33.68,12.18a86.46,86.46,0,0,0-14.8,11.24,83.62,83.62,0,0,0-12,14.46c-7,10.4-11,22.6-13.07,33.56-4.27,22.63-1.9,44.65,2.64,64.81s11.43,39.13,18.35,57.27c3.59,9.27,6.66,17.27,9.39,26,1.19,3.72,2.27,7.46,3.32,11.21a93.82,93.82,0,0,0-13.75-13C170,207.16,151,199.72,131.32,196.58S90.73,195,71.5,203a114.21,114.21,0,0,0-48.22,37.67A119.52,119.52,0,0,0,.76,298.44c-2.62,21.13,1.66,43.3,11.4,62.35a117.79,117.79,0,0,0,43.17,47,122.53,122.53,0,0,0,61.89,17.94,130,130,0,0,0,32.29-3.51c2.66-.59,5.28-1.3,7.88-2.12s5.17-1.67,7.73-2.59a107.28,107.28,0,0,0,15.23-7c19.77-10.82,35.43-27.86,46-47a138,138,0,0,0,12.29-30.36,142.78,142.78,0,0,0,3.38-16c.84-5.5,1.22-10.74,1.55-15.94a251.26,251.26,0,0,0-4.69-61.6q-3-15-7.33-29.62c-2.86-9.61-6.54-19.56-9.77-28.2-6.54-17.72-12.48-35.11-16.17-52.33s-5.13-34.14-2.11-49.3c1.58-7.79,3.81-14.16,7.57-19.7a44.93,44.93,0,0,1,6.34-7.63,47.83,47.83,0,0,1,8.09-6.06,57.52,57.52,0,0,1,20.07-7.22,71.73,71.73,0,0,1,11.34-1,95.19,95.19,0,0,1,11.94.53A57.47,57.47,0,0,1,289.32,45a39.87,39.87,0,0,1,14.26,13c7.71,11.11,11.17,27.63,11.8,44.74s-1.34,35.32-4.25,53.37a536.05,536.05,0,0,1-12.23,54.23q-3.73,13.53-8,27l-4.3,13.54c-1.42,4.64-3.05,9.63-4.33,14.48A308.06,308.06,0,0,0,272,325.22a271.07,271.07,0,0,0,2.86,60.91,218.38,218.38,0,0,0,7.11,30,136.19,136.19,0,0,0,12.81,29.3,123.54,123.54,0,0,0,45.36,44.73A130.28,130.28,0,0,0,369.53,502a155.32,155.32,0,0,0,30.58,5.18c20.56,1.41,42-1.33,61.19-10.44a100.24,100.24,0,0,0,25.92-17.89,104.07,104.07,0,0,0,10.41-11.65,96,96,0,0,0,8.6-13.09C516.19,435.54,518.56,412.8,510.92,393.19ZM208.5,299.69a113.54,113.54,0,0,1-3.16,24.83,103.93,103.93,0,0,1-8.68,23,88.68,88.68,0,0,1-32.35,35.15,75.42,75.42,0,0,1-10.7,5.39c-1.92.78-3.83,1.6-5.81,2.21s-3.93,1.34-5.94,1.86a99.86,99.86,0,0,1-24.6,3.68,93.73,93.73,0,0,1-47.79-11.79A96.37,96.37,0,0,1,34.14,349a85.71,85.71,0,0,1-11.65-48.58,102.89,102.89,0,0,1,15.93-49.21,97.75,97.75,0,0,1,39-35.1c15.78-7.87,34.41-10.59,52.7-9.34,18.31,1.41,36.61,7,52.33,17a91.08,91.08,0,0,1,18.87,15.87c.62,2.46,1.28,4.91,1.82,7.38A215.54,215.54,0,0,1,208.5,299.69Z"></path></g></g></symbol><symbol id="child" xmlns="http://www.w3.org/2000/svg" viewBox="0 0 320 512"><path d="M96 64a64 64 0 1 1 128 0A64 64 0 1 1 96 64zm48 320l0 96c0 17.7-14.3 32-32 32s-32-14.3-32-32l0-192.2L59.1 321c-9.4 15-29.2 19.4-44.1 10S-4.5 301.9 4.9 287l39.9-63.3C69.7 184 113.2 160 160 160s90.3 24 115.2 63.6L315.1 287c9.4 15 4.9 34.7-10 44.1s-34.7 4.9-44.1-10L240 287.8 240 480c0 17.7-14.3 32-32 32s-32-14.3-32-32l0-96-32 0z"></path></symbol><symbol id="STEENBOK" xmlns="http://www.w3.org/2000/svg" viewBox="0 0 551.6 497.9"><title>Capricorn</title><g data-name="Слой 2"><g data-name="Слой 1"><path d="M551.34,371.65C549,341.76,531,315,505.92,300.93a87.74,87.74,0,0,0-41.25-11.58,101,101,0,0,0-20.75,1.87,113.49,113.49,0,0,0-19.57,5.61A110.93,110.93,0,0,0,390.17,318c-2,1.76-3.86,3.65-5.7,5.6,0-1.09-.06-2.17-.07-3.25-.07-5.6,0-11.31.08-17.3q.09-17.75-.16-35.63c-.32-23.84-1.59-47.86-4.16-71.89-1.41-12.05-3-23.88-5.37-36.17A204.65,204.65,0,0,0,364.34,123,131.14,131.14,0,0,0,345,88.86a90.69,90.69,0,0,0-31.26-25.27A92.19,92.19,0,0,0,295,56.88c-1.59-.44-3.2-.72-4.8-1l-2.41-.46L285,55a57,57,0,0,0-10.74-.18C260.41,56,248.33,61,237.4,67.21a125.9,125.9,0,0,0-34,28.63c-1.57-5.73-3.21-11.45-5.17-17.22a161,161,0,0,0-9.58-23.38l-1.56-3c-.57-1-1.3-2.16-1.95-3.23l-2.05-3.23-2-2.63a113.79,113.79,0,0,0-8.4-10.34,94.17,94.17,0,0,0-21.46-17.62,107.77,107.77,0,0,0-25.19-11,109.66,109.66,0,0,0-26.76-4,109.26,109.26,0,0,0-52.1,11.17c-16.1,8-31,20.78-39.45,38A74.88,74.88,0,0,0,.24,76.35a79.78,79.78,0,0,0,2.47,26.87,41.55,41.55,0,0,0,1.89,6.31l2.24,6.17,2.9,6c.5,1,1,2,1.5,2.94l1.78,2.8c4.46,7.62,10.83,14.07,17.65,19.45l5.32,3.8,5.72,3.09a41.07,41.07,0,0,0,5.89,2.58,44.11,44.11,0,0,0,6,2.09l6.13,1.53c2.06.39,4.14.57,6.19.85l3.08.38,3.08,0c2,0,4.09.08,6.12,0,4-.53,8.06-.65,11.93-1.69l5.78-1.3,5.6-1.83a99.17,99.17,0,0,0,20.6-10.3c-3.74.83-7.32,1.94-11,2.64-3.71.54-7.29,1.4-11,1.51l-5.42.47-5.41-.08c-3.58.13-7.11-.65-10.57-1-13.78-2.41-26.17-8.58-34.72-18A53.33,53.33,0,0,1,33.89,116l-1-2.1c-.28-.73-.48-1.5-.73-2.24l-1.44-4.44-.92-4.64A28.65,28.65,0,0,1,29.07,98a51.46,51.46,0,0,1,.52-17.92,45,45,0,0,1,6.13-15.52c5.85-9.38,15.38-16.65,26.43-21.18A78.68,78.68,0,0,1,97.66,37.6,73,73,0,0,1,131.12,48,63,63,0,0,1,144.3,59a77.77,77.77,0,0,1,5.84,7.1l1.44,1.85.95,1.54c.32.53.66,1,1,1.57l1,2a147.53,147.53,0,0,1,7.68,18.18c2.43,6.5,4.53,13.36,6.57,20.22,4,13.79,7.51,27.92,10.46,42.17s5.6,28.61,7.45,43l1.35,10.77,1.19,11.1,2.29,22.23c2.95,29.66,5.45,59.36,7.22,89.2.91,14.92,1.55,29.86,2.2,44.88L202.4,420c13.44-59,18.32-120.11,18.15-180.75,0-7.59-.1-15.18-.29-22.75L220,205.07l-.53-11.69c-1.06-15.52-2.63-30.93-5.12-46.22-2.06-12.87-4.5-25.69-7.6-38.46a111.12,111.12,0,0,1,9.93-9.49,117.32,117.32,0,0,1,28-17.69c9.95-4.4,20.64-7.24,30.36-7.25a37.08,37.08,0,0,1,6.84.71l1.58.38,1.88.56c1.25.38,2.52.72,3.73,1.19a70.17,70.17,0,0,1,13.84,6.51,72.46,72.46,0,0,1,21.53,20.69,104.36,104.36,0,0,1,13.24,28.18c6.35,20.45,8.49,42.83,9.86,65.8s1.42,45.87,1.06,69.06c-.21,11.59-.6,23.23-1,34.91-.18,5.77-.42,11.81-.48,18s-.05,12.29.17,18.52a242.56,242.56,0,0,0,4,37.9c.18.9.38,1.79.57,2.69-.39.94-.79,1.9-1.17,2.84-4.45,10.9-8.77,21.36-14.1,31.19-5.43,10-11.22,20.38-17.44,29.67a116.63,116.63,0,0,1-22.34,24.78c-8.67,7.14-18.76,12.81-29.34,17.58s-21.68,8.71-32.87,12.5a279.29,279.29,0,0,0,34.81-7.27,136.48,136.48,0,0,0,33.31-14.43c10.57-6.42,19.85-15.1,27.83-24.42s14.76-19,21.69-29c3.13-4.71,6-9.52,8.68-14.36,1,2.25,2,4.49,3.15,6.71a93.56,93.56,0,0,0,28.14,33.58,96.62,96.62,0,0,0,40.31,16.72,112.65,112.65,0,0,0,42.09-.16,104.45,104.45,0,0,0,39.57-16.46,87.63,87.63,0,0,0,29-33.56A85.34,85.34,0,0,0,551.34,371.65Zm-41.4,27.13a50.84,50.84,0,0,1-17.19,18.76,66.63,66.63,0,0,1-25.27,10c-9.2,1.77-18.48,1.4-28-.25a53.95,53.95,0,0,1-41-30c-5.55-10.49-8.93-23-11-36.27a123.92,123.92,0,0,1,9.34-11.94,77.35,77.35,0,0,1,11.05-10.49,87.46,87.46,0,0,1,26.54-14,84.48,84.48,0,0,1,14.53-3.21,70.83,70.83,0,0,1,14.38-.45,55.2,55.2,0,0,1,25.59,8.62c15.44,9.79,25.92,27.07,26.41,44.37A49.87,49.87,0,0,1,509.94,398.78Z"></path></g></g></symbol><symbol id="STIER" xmlns="http://www.w3.org/2000/svg" viewBox="0 0 429.44 510.83"><title>Taurus</title><g data-name="Слой 2"><g data-name="Слой 1"><path d="M350.59,208.33a200,200,0,0,0-63-38.83c-2.42-.92-4.87-1.76-7.32-2.58a88.39,88.39,0,0,0,6.63-8.66l1.61-2.47,1.37-2.32c.93-1.55,1.79-3.11,2.63-4.68a232.44,232.44,0,0,0,15.58-37.32c4.15-12.08,7.65-23.64,12-34.29,8.54-21.5,20.61-39.78,40.35-51.45,19.73-12,44.47-18,69-24.19A237.66,237.66,0,0,0,391.09.32,140.53,140.53,0,0,0,352,7.67,99,99,0,0,0,316.24,29.9c-10.29,9.89-18.36,21.55-24.9,33.4s-11.69,24-16.61,35.24-9.78,21.84-15.59,31c-.72,1.15-1.44,2.29-2.2,3.39l-1.12,1.66-1,1.43a49.2,49.2,0,0,1-4.34,5.17,43.83,43.83,0,0,1-10.28,7.91,56.93,56.93,0,0,1-12.5,5.26,49.25,49.25,0,0,1-25.95,0,56.85,56.85,0,0,1-12.49-5.26A43.89,43.89,0,0,1,179,141.23a50.45,50.45,0,0,1-4.34-5.17l-1-1.43L172.5,133c-.76-1.1-1.49-2.24-2.21-3.39-5.8-9.2-10.56-19.78-15.58-31s-10-23.3-16.61-35.24-14.61-23.51-24.9-33.4A99,99,0,0,0,77.43,7.67,140.39,140.39,0,0,0,38.35.32,237.66,237.66,0,0,0,0,1.54c24.57,6.15,49.3,12.2,69,24.19,19.74,11.67,31.81,30,40.35,51.45,4.33,10.65,7.83,22.21,12,34.29A231.53,231.53,0,0,0,137,148.79c.84,1.57,1.7,3.13,2.62,4.68l1.38,2.32,1.61,2.47a89.87,89.87,0,0,0,6.62,8.66c-2.45.82-4.89,1.66-7.31,2.58a200.14,200.14,0,0,0-63,38.83A182.72,182.72,0,0,0,35.7,268.27a164.83,164.83,0,0,0-14.41,72,162.78,162.78,0,0,0,18.1,70.22,174.8,174.8,0,0,0,45.23,55.07,193.61,193.61,0,0,0,61.43,33.86,212.14,212.14,0,0,0,137.33,0,193.66,193.66,0,0,0,61.44-33.86,175.08,175.08,0,0,0,45.23-55.07,162.92,162.92,0,0,0,18.1-70.22,165,165,0,0,0-14.41-72A182.75,182.75,0,0,0,350.59,208.33ZM332.82,451.75a172.76,172.76,0,0,1-54.44,33.79,178.33,178.33,0,0,1-127.32,0,172.92,172.92,0,0,1-54.45-33.79c-31.28-29-49.89-70.34-48.24-111.49a135.8,135.8,0,0,1,15.46-58.55,147.93,147.93,0,0,1,38.56-46.3,166.72,166.72,0,0,1,52.85-28.83,185.19,185.19,0,0,1,119,0,166.76,166.76,0,0,1,52.86,28.83,147.93,147.93,0,0,1,38.56,46.3,135.8,135.8,0,0,1,15.46,58.55C382.72,381.41,364.11,422.75,332.82,451.75Z"></path></g></g></symbol><symbol id="KREEFT" xmlns="http://www.w3.org/2000/svg" viewBox="0 0 637.58 498.08"><title>Cancer</title><g data-name="Слой 2"><g data-name="Слой 1"><path d="M174.82,391.68a148.79,148.79,0,0,0,42.57-15.25,137.64,137.64,0,0,0,35.54-28c20.44-22.3,33.2-51.75,34.13-82.21a114.08,114.08,0,0,0-31.31-82.37,125.25,125.25,0,0,0-35-26.24,126.73,126.73,0,0,0-41.34-12.21c-28.4-3.25-56.55,2.21-81.57,13.1a177.09,177.09,0,0,0-45.66,28.89c2.53-5.44,5.11-10.87,8.08-16.12,11.82-21.44,27.42-41,45.33-58.35a319.06,319.06,0,0,1,60.32-45.26C209.79,42,259.53,25.51,310.84,19a358.81,358.81,0,0,1,77.83-1.62,316.72,316.72,0,0,1,38.88,5.76A190.76,190.76,0,0,1,465.23,35c-11.16-7.27-23.46-12.85-36.1-17.44a317.81,317.81,0,0,0-38.9-10.73C363.8,1.34,336.56-.6,309.37.16A376.88,376.88,0,0,0,151.33,41a329.09,329.09,0,0,0-68.89,46.9,273.73,273.73,0,0,0-54,65.14c-3.67,6.13-7,12.48-10.09,18.95a218.16,218.16,0,0,0-8.39,20.14A176,176,0,0,0,.6,235.55C-1.87,265.1,3.2,296,17.85,323.25a134.13,134.13,0,0,0,12.84,19.38A125.44,125.44,0,0,0,47,359.5a141.45,141.45,0,0,0,39.25,23.58A160.17,160.17,0,0,0,174.82,391.68ZM51.9,304.79C41.19,285.29,37,261.74,38.7,238.54a138.06,138.06,0,0,1,6.73-34.25c1.12-3.34,2.47-6.8,3.9-10.26A157.14,157.14,0,0,1,65.8,183.75a177.69,177.69,0,0,1,35.76-15.22,174.39,174.39,0,0,1,37.58-7,132.26,132.26,0,0,1,37.21,2.6A108.68,108.68,0,0,1,210,177.25a104.09,104.09,0,0,1,26.66,23.37,101.69,101.69,0,0,1,9.75,14.48,92.35,92.35,0,0,1,6.7,15.81,88.23,88.23,0,0,1,3.57,33.62c-1.92,22.63-12.61,44.32-28.58,60.48a108.22,108.22,0,0,1-27.42,20,112.48,112.48,0,0,1-32.35,10.53C123.31,363.08,71.79,344,51.9,304.79Z"></path><path d="M630.17,218.43a131.11,131.11,0,0,0-9.46-21.36,121.37,121.37,0,0,0-13.52-19.45,136.68,136.68,0,0,0-35.5-29.41,158.43,158.43,0,0,0-86.76-20.81,150.71,150.71,0,0,0-44.25,9.26,141.38,141.38,0,0,0-39.17,22.48c-23.49,18.9-40.85,45.64-47,75.49a113.46,113.46,0,0,0-.32,45.36,120.9,120.9,0,0,0,6.64,21.69,115.18,115.18,0,0,0,10.78,19.66,121.13,121.13,0,0,0,30.81,31.38,124.4,124.4,0,0,0,39.42,17.84c27.8,7,56.45,5.3,82.74-2.15a181.12,181.12,0,0,0,48.53-21.76l0,0c-3.45,5.05-7,10.08-10.78,14.91-15.17,19.37-33.66,36.33-54,50.95a332.66,332.66,0,0,1-66.45,36.25,391.3,391.3,0,0,1-150.61,28.48,356.69,356.69,0,0,1-77.46-8.91A314.19,314.19,0,0,1,176,457.3a185,185,0,0,1-35.69-17.09c10,8.84,21.43,16.11,33.34,22.42a311.37,311.37,0,0,0,37.13,16,347,347,0,0,0,79.38,17.55,383.06,383.06,0,0,0,162.37-18.95,340.34,340.34,0,0,0,74.94-36.53,284.45,284.45,0,0,0,63.36-56q6.84-8.24,13-17.06c4.05-6,7.88-11.82,11.55-18.42A180.1,180.1,0,0,0,632,308C639.48,279.31,640,248,630.17,218.43Zm-35.21,80A141.72,141.72,0,0,1,582.4,331.2c-1.55,2.93-3.33,5.95-5.19,8.95a160.29,160.29,0,0,1-17.37,7.64,181.21,181.21,0,0,1-37.62,10.15,178.43,178.43,0,0,1-38.27,2,132.93,132.93,0,0,1-36.6-7.53,106.05,106.05,0,0,1-31.5-17.61,99.74,99.74,0,0,1-22.76-27,97.79,97.79,0,0,1-7.27-15.8,93.85,93.85,0,0,1-4-16.66,90.32,90.32,0,0,1-.5-17,96.5,96.5,0,0,1,2.78-16.78c5.82-22.06,20-41.79,38.38-55.46a112.92,112.92,0,0,1,30.27-15.94,115,115,0,0,1,33.66-6c45.76-1.45,94.22,24.8,107,66.74C600.68,251.83,600.68,275.81,595,298.45Z"></path></g></g></symbol><symbol id="MAAGD" xmlns="http://www.w3.org/2000/svg" viewBox="0 0 645.62 497.17"><title>Virgo</title><g data-name="Слой 2"><g data-name="Слой 1"><path d="M645.49,180.34a75.74,75.74,0,0,0-4.39-22.9,63.17,63.17,0,0,0-5.4-11.3,60.23,60.23,0,0,0-7.74-10.2,44,44,0,0,0-11.65-8.83,39.91,39.91,0,0,0-15-4.29A43,43,0,0,0,587,124.15a57.78,57.78,0,0,0-11.58,4.61,83.33,83.33,0,0,0-17.64,12.7,136.52,136.52,0,0,0-24.73,31,194.17,194.17,0,0,0-15.45,34.11c-.51-5-1-10-1.66-15a289.34,289.34,0,0,0-7.7-39c-3.7-13-8.44-26-15.35-38.4a119.52,119.52,0,0,0-27-33.67,101.68,101.68,0,0,0-38.38-20.54c-7-1.6-13.75-3.3-21.21-3.73a107.64,107.64,0,0,0-21.13,1A154.18,154.18,0,0,0,347,68.62c-5.93,2.73-11.73,5.6-17.32,8.81-1.69,1-3.35,2.06-5,3.1A105.12,105.12,0,0,0,316,73.77c-2.67-1.73-5.33-3.47-8-5.1l-8.55-4.09a68.14,68.14,0,0,0-8.76-3.31,57.27,57.27,0,0,0-8.91-2.53l-9-1.8a74.21,74.21,0,0,0-9.39-.9,98.14,98.14,0,0,0-18.18,1A136.41,136.41,0,0,0,212,66.42c-4.16,1.73-8.19,3.67-12.15,5.73-.35-.92-.64-1.83-1-2.76-.73-2-1.73-4.13-2.65-6.2s-1.83-4.15-3-6.32a70.91,70.91,0,0,0-3.66-6.57A61.25,61.25,0,0,0,185.2,44a111.66,111.66,0,0,0-19.74-21A106.89,106.89,0,0,0,112.37.86,114.93,114.93,0,0,0,56.58,7.77a100.36,100.36,0,0,0-25,14A86.35,86.35,0,0,0,11.79,43.34,74.44,74.44,0,0,0,1.13,70.9a80.69,80.69,0,0,0,.31,28.64,95.3,95.3,0,0,0,3.73,13.35,83.26,83.26,0,0,0,5.54,12.68c4.64,8,10.24,15.56,17.34,21.52a75.22,75.22,0,0,0,23.58,13.4,78,78,0,0,0,25.91,3.83c17.24-.47,33.35-6.29,47-14.87L118.68,151a52.86,52.86,0,0,1-5.8,1.45,91,91,0,0,1-11.71,1.75,81.88,81.88,0,0,1-22.91-.61,72.4,72.4,0,0,1-20.69-7.07,60.27,60.27,0,0,1-16.24-13.07A61.12,61.12,0,0,1,31,116c-1-3.28-2.28-6.39-2.81-9.82A72.27,72.27,0,0,1,26.65,96a58.87,58.87,0,0,1,2-19.16A48.91,48.91,0,0,1,36.89,60.6c7.49-9.68,18.78-16.79,31.28-20.71a84.58,84.58,0,0,1,39-2.66c12.76,2.29,24.78,7.34,34.16,15.43a74.73,74.73,0,0,1,12.87,14.15,26.15,26.15,0,0,1,2.44,3.63,36.75,36.75,0,0,1,2.14,4,49.88,49.88,0,0,1,2.11,4.55c.69,1.6,1.4,3.13,2,4.87,5.4,13.43,9.73,28.29,13.48,43.23s7,30.2,9.73,45.48,4.77,30.49,6.31,46.11c.77,7.89,1.52,15.77,2.17,23.67s1.38,15.81,2,23.72c5,63.34,6.65,127.08,8.57,191.68C219.18,394.62,226,330,226.88,265.09q.36-24.33-.48-48.68a470.08,470.08,0,0,0-4.07-49.48c-2.14-16.41-5.2-32.65-8.83-48.87-2.57-11-5.55-22-9.15-33.06,14.37-3,28.61-4.77,42.15-4.13a76.8,76.8,0,0,1,13.83,1.73,64.85,64.85,0,0,1,6.41,1.69l6.5,2.39c8.4,3.56,16.28,7.68,22.71,13.59a91.09,91.09,0,0,1,16.89,20.08,133.65,133.65,0,0,1,11.51,25.14,190.79,190.79,0,0,1,7.4,28.13c2,9.72,3.37,19.61,4.58,30,5,41.09,6.8,83.09,8.9,125.67s3.89,85.22,10,128.43c4.76-21.11,8.26-42.39,11.48-63.73,1.55-10.67,3-21.35,4.37-32.05s2.55-21.41,3.43-32.14c3.65-42.88,4.9-86.58.33-130.53-2.41-21.86-6.14-44.83-14.93-67-4.45-11-9.82-22-17.12-32.06a113.34,113.34,0,0,0-9-10.81c6.15-1.81,12.31-3.42,18.47-4.72,5.89-1.14,11.7-2.23,17.51-2.93A129.65,129.65,0,0,1,386.91,81a90.18,90.18,0,0,1,16.14,1.71c4.92,1,10.08,3,15.05,4.84a77.15,77.15,0,0,1,25.31,17.34C457.62,119.48,466.3,140,471.55,162a284.93,284.93,0,0,1,5.9,34.32c1.5,11.93,2.63,24,3.48,36s1.6,24.23,2.1,36.43.84,24.47,1.21,36.78l.85,37.07c.21,12.36.63,25.36,1.86,38.24.56,6.46,1.44,12.93,2.5,19.39,0,.27.1.53.14.8-7.91,10.13-15.69,20.46-23,31.17-13.78,20.12-26.34,41.7-33.75,64.91,14.14-19.76,30.2-37.1,47.11-53.79,5.23-5.18,10.54-10.29,15.88-15.39a141.76,141.76,0,0,0,12.1,28.87c6.73,11.66,15.7,22.52,27.09,29.84a70.59,70.59,0,0,0,18.11,8.1,73.06,73.06,0,0,0,19,2.37c-12-3.8-22.78-9.91-30.78-18.31a80,80,0,0,1-10.22-13.8,87.22,87.22,0,0,1-6.88-15.71c-4.37-13.15-6.55-27-7.51-41.21,5-4.74,10-9.51,15-14.36,34.92-33.8,67.66-72.17,90-118.28,11-23.15,19.21-47.65,22.81-74A123.38,123.38,0,0,0,645.49,180.34Zm-38.6,15.82c-.77,5.09-2.12,10.55-3.31,15.9l-2.18,8c-.72,2.66-1.67,5.27-2.44,7.93a278.86,278.86,0,0,1-12.13,31.12c-9.3,20.44-21.09,40.06-34,59.31-6.51,9.54-13.3,19.15-20.3,28.42-5.15,6.75-10.49,13.54-15.92,20.32.4-7.79,1-15.64,1.47-23.76.89-12.48,1.47-25,2-37.58s.63-25.2.66-37.88c-.07-10.46-.43-21-.93-31.48,10.39-17.93,20.49-35.56,32.95-50.17a124,124,0,0,1,11.3-11.91,108.68,108.68,0,0,1,12.34-10.12,59.13,59.13,0,0,1,12.43-6.9c3.94-1.49,7.32-1.79,8.91-1.27s2.41,1.12,4.29,3.47a27.92,27.92,0,0,1,2.75,4.38,28.93,28.93,0,0,1,1.93,5.1C608.74,176.3,608.71,185.92,606.89,196.16Z"></path></g></g></symbol><symbol id="WEEGSCHAAL" xmlns="http://www.w3.org/2000/svg" viewBox="0 0 681.73 514.01"><title>Libra</title><g data-name="Слой 2"><g data-name="Слой 1"><path d="M650.33,483.67c-207.59-62.05-415.85-62-619,0a15.5,15.5,0,1,0,9.06,29.64c197.22-60.24,399.46-60.24,601.09,0a15.49,15.49,0,1,0,8.87-29.68Z"></path><path d="M669,389a492.05,492.05,0,0,0-65.43-18.68,640.22,640.22,0,0,0-66.23-10.59,685.54,685.54,0,0,0-74-3.87c3.48-1.82,6.93-3.7,10.33-5.7a213.53,213.53,0,0,0,56-46.9,172.38,172.38,0,0,0,33.7-66.78l1.22-4.59c.37-1.54.56-3.11.85-4.67l1.53-9.37a80.64,80.64,0,0,0,.89-9.43l.57-9.45a186.69,186.69,0,0,0-3-37.62,174.64,174.64,0,0,0-29.26-69.81,200.76,200.76,0,0,0-54.46-52c-21-13.76-44.16-23.53-68-30A280.76,280.76,0,0,0,268,9.63c-23.82,6.43-47,16.19-68,29.94a201.19,201.19,0,0,0-54.47,52,174.63,174.63,0,0,0-29.28,69.8,188.24,188.24,0,0,0-3,37.62l.58,9.45a80.64,80.64,0,0,0,.89,9.43l1.52,9.37c.29,1.56.49,3.13.84,4.67l1.23,4.59A172.38,172.38,0,0,0,152,303.25a213.17,213.17,0,0,0,56,46.91c3.41,2,6.88,3.9,10.37,5.73a685.68,685.68,0,0,0-74,3.87,640.65,640.65,0,0,0-66.23,10.59A492.05,492.05,0,0,0,12.7,389c-.43.16-.9.35-1.32.55a19.38,19.38,0,1,0,16,35.3l.13-.06a453.43,453.43,0,0,1,58.93-21.61,603.51,603.51,0,0,1,62.07-14.7,655.55,655.55,0,0,1,127.85-10.65A9.74,9.74,0,0,0,280.06,359l-.25-.09,0,0a265.59,265.59,0,0,1-58.63-29.68c-17.9-12.24-33.94-26.84-46.42-43.76a142.87,142.87,0,0,1-25.2-56.17l-.84-3.74c-.23-1.26-.31-2.55-.48-3.82l-.95-7.63a59.68,59.68,0,0,1-.45-7.69l-.23-7.71A153.41,153.41,0,0,1,150,168.05a146.67,146.67,0,0,1,25-55.35,164.1,164.1,0,0,1,45.3-41.41c35.19-22.31,78-32.66,120.58-32.56,42.55-.09,85.39,10.26,120.56,32.59a163.65,163.65,0,0,1,45.29,41.42,146.5,146.5,0,0,1,25,55.35,154.15,154.15,0,0,1,3.45,30.68l-.24,7.71a57.94,57.94,0,0,1-.46,7.69l-.94,7.63c-.17,1.27-.25,2.56-.49,3.82l-.84,3.74A142.89,142.89,0,0,1,507,285.53c-12.49,16.91-28.53,31.51-46.43,43.75A266.06,266.06,0,0,1,401.92,359a9.75,9.75,0,0,0,3.34,18.91h.09A655.42,655.42,0,0,1,533.2,388.51a604.32,604.32,0,0,1,62.08,14.7,453.29,453.29,0,0,1,58.92,21.61l.17.08c.42.18.85.36,1.29.52A19.38,19.38,0,1,0,669,389Z"></path></g></g></symbol><symbol id="RAM" xmlns="http://www.w3.org/2000/svg" viewBox="0 0 546.03 510.83"><title>Aries</title><g data-name="Слой 2"><g data-name="Слой 1"><path d="M534.11,45.29C523.36,28.2,506.6,15.93,488.48,8.56a118.82,118.82,0,0,0-58-7.71,106,106,0,0,0-55.17,23c-1.93,1.67-4,3.24-5.8,5l-5.4,5.44c-3.26,3.77-6.36,7.24-9.46,11.36A186.83,186.83,0,0,0,339.8,70.58c-16.74,32.83-29.67,66.27-41.13,100.64-5.65,17.17-10.9,34.59-15.11,52.43-3.72,15.88-7.32,31.8-10.5,47.87-3.18-16.07-6.79-32-10.51-47.88-4.21-17.84-9.43-35.27-15.09-52.44C236,136.83,223.09,103.38,206.33,70.55a187.58,187.58,0,0,0-14.85-24.92c-3.1-4.12-6.21-7.59-9.46-11.37l-5.41-5.43c-1.83-1.78-3.87-3.35-5.8-5a106.17,106.17,0,0,0-55.2-23,118.79,118.79,0,0,0-58,7.72C39.45,15.89,22.69,28.17,11.92,45.26S-2.29,83.55,1.51,102.43c3.69,18.69,12.35,36.92,27,49.51,7.22,6.18,15.33,11.42,24.27,14.39a49.35,49.35,0,0,0,6.71,2,41,41,0,0,0,6.81,1.48c2.3.31,4.58.7,6.87.94L80,171a92.54,92.54,0,0,0,26.82-4.24c8.69-2.41,16.74-6.48,24.49-10.75-16.3,6.88-33.93,10.93-51,9.14a74,74,0,0,1-24.4-6.49c-7.7-3.34-14.3-8.62-20-14.44-11.35-11.9-17.61-27.88-19.55-44s2.15-32,11.35-44.33,22.72-21.5,37.67-26.53A95.06,95.06,0,0,1,112,25.91a83.19,83.19,0,0,1,40.82,19.3c1.36,1.31,2.82,2.48,4.1,3.86l3.8,4.16c2.38,3.05,5.06,6.32,7.15,9.38a163,163,0,0,1,11.35,21.28c7.14,15.41,13.46,31.66,19.31,48s11.41,32.88,16.35,49.53,9.35,33.38,13,50.12c3.62,17.13,7.13,34.27,10,51.44A860.46,860.46,0,0,1,250,386.34c2.08,34.63,2.14,70,3.67,105.94a19.36,19.36,0,0,0,38.68,0c1.5-35.91,1.6-71.31,3.64-105.94A864.9,864.9,0,0,1,308.14,283c2.9-17.17,6.42-34.31,10-51.44,3.64-16.74,8-33.47,13-50.13s10.47-33.17,16.34-49.54,12.17-32.6,19.31-48a163.19,163.19,0,0,1,11.37-21.29c2.08-3.06,4.77-6.33,7.14-9.39L389.13,49c1.28-1.37,2.74-2.55,4.1-3.86a83.36,83.36,0,0,1,40.85-19.32,95.18,95.18,0,0,1,46.65,3.45c15,5,28.59,14.1,37.69,26.55s13.26,28.25,11.34,44.36-8.2,32.11-19.56,44c-5.7,5.82-12.3,11.1-20,14.44a73.89,73.89,0,0,1-24.41,6.49c-17.12,1.78-34.76-2.27-51.05-9.16,7.75,4.26,15.8,8.33,24.49,10.74A92.2,92.2,0,0,0,466.05,171l6.9-.19c2.29-.24,4.57-.63,6.87-1a41,41,0,0,0,6.81-1.48,48.79,48.79,0,0,0,6.7-2c8.94-3,17.05-8.22,24.27-14.39,14.58-12.59,23.25-30.8,26.93-49.5C548.33,83.55,545,62.29,534.11,45.29Z"></path></g></g></symbol><symbol id="SCHORPIOEN" xmlns="http://www.w3.org/2000/svg" viewBox="0 0 715.43 510.66"><title>Scorpio</title><g data-name="Слой 2"><g data-name="Слой 1"><path d="M715.43,367.38h0c-6.16,9.4-12,18.56-18.58,27.06a180,180,0,0,1-21.37,23.42,187,187,0,0,1-25.22,19c-9,5.75-18.56,10.81-28.45,16.33a94.33,94.33,0,0,0,32.89-7.94,100.07,100.07,0,0,0,28.62-18.94,108.5,108.5,0,0,0,11.13-12.26L688,424c-4.44,6.65-8.92,13.23-13.84,19.36a169.52,169.52,0,0,1-15.42,17.25c-5.62,5-11.32,9.84-17.74,13.2a74.91,74.91,0,0,1-19.79,8,99.35,99.35,0,0,1-10.49,2.11c-3.59.42-7.19.75-10.82.92-7.53.19-14.31.09-21-1.27a72.25,72.25,0,0,1-18.95-6.39,59.11,59.11,0,0,1-26.45-26.19,129.52,129.52,0,0,1-11.39-40.39c-1.89-14.45-2.25-29.6-1.91-45.11l1.24-47.91c.2-16.19.26-32.46-.15-48.79S520,236,518.36,219.59s-3.61-32.71-7.16-49.52a209.57,209.57,0,0,0-16.71-49.52c-8-15.94-19.43-31.14-34.32-42.48-3.69-2.83-7.75-5.22-11.67-7.68-4.2-2-8.24-4.32-12.59-5.82a114,114,0,0,0-26.47-6.49,104.78,104.78,0,0,0-26.83,1,138.32,138.32,0,0,0-24.84,6.36,187.5,187.5,0,0,0-32.89,15.33,106.05,106.05,0,0,0-8.92-7c-2.67-1.73-5.33-3.47-8-5.1l-8.55-4.09a68.14,68.14,0,0,0-8.76-3.31,57,57,0,0,0-8.91-2.53l-9-1.8a74.21,74.21,0,0,0-9.39-.9,98.19,98.19,0,0,0-18.18,1A136.41,136.41,0,0,0,212,66.42c-4.17,1.73-8.19,3.67-12.15,5.73-.35-.92-.64-1.83-1-2.76-.73-2-1.73-4.13-2.65-6.2s-1.83-4.15-3-6.32a70.91,70.91,0,0,0-3.66-6.57A61.25,61.25,0,0,0,185.2,44a111.66,111.66,0,0,0-19.74-21A106.89,106.89,0,0,0,112.37.86,114.93,114.93,0,0,0,56.58,7.77a100.36,100.36,0,0,0-25,14A86.35,86.35,0,0,0,11.79,43.34,74.44,74.44,0,0,0,1.13,70.9a80.69,80.69,0,0,0,.31,28.64,95.3,95.3,0,0,0,3.73,13.35,83.26,83.26,0,0,0,5.54,12.68c4.64,8,10.24,15.56,17.34,21.52a75.22,75.22,0,0,0,23.58,13.4,78,78,0,0,0,25.91,3.83c17.24-.47,33.35-6.29,47-14.87L118.68,151a52.86,52.86,0,0,1-5.8,1.45,91,91,0,0,1-11.71,1.75,81.88,81.88,0,0,1-22.91-.61,72.57,72.57,0,0,1-20.7-7.07,60.22,60.22,0,0,1-16.23-13.07A61.12,61.12,0,0,1,31,116c-1-3.28-2.28-6.39-2.81-9.82A72.27,72.27,0,0,1,26.65,96a58.87,58.87,0,0,1,2-19.16A48.72,48.72,0,0,1,36.89,60.6c7.49-9.68,18.78-16.79,31.28-20.71a84.58,84.58,0,0,1,39-2.66c12.76,2.29,24.78,7.34,34.16,15.43a74.73,74.73,0,0,1,12.87,14.15,27.09,27.09,0,0,1,2.44,3.63,36.75,36.75,0,0,1,2.14,4,49.88,49.88,0,0,1,2.11,4.55c.69,1.6,1.4,3.13,2,4.87,5.4,13.43,9.73,28.29,13.48,43.23s7,30.2,9.73,45.48,4.77,30.49,6.31,46.11c.77,7.89,1.52,15.77,2.17,23.67s1.38,15.81,2,23.72c5,63.34,6.65,127.08,8.57,191.68C219.18,394.62,226,330,226.88,265.09q.36-24.33-.48-48.68a470.08,470.08,0,0,0-4.07-49.48c-2.14-16.41-5.2-32.65-8.83-48.87-2.57-11-5.55-22-9.15-33.06,14.37-3,28.61-4.77,42.15-4.13a76.8,76.8,0,0,1,13.83,1.73,64.85,64.85,0,0,1,6.41,1.69l6.5,2.39c8.4,3.56,16.28,7.68,22.71,13.59a91.09,91.09,0,0,1,16.89,20.08,133.65,133.65,0,0,1,11.51,25.14,190.79,190.79,0,0,1,7.4,28.13c2,9.72,3.37,19.61,4.58,30,5,41.09,6.8,83.09,8.9,125.67s3.89,85.22,10,128.43c4.76-21.11,8.26-42.39,11.48-63.73,1.55-10.67,3-21.35,4.37-32.05s2.55-21.41,3.43-32.14c3.65-42.88,4.9-86.58.33-130.53-2.41-21.86-6.14-44.83-14.93-67-4.45-11-9.82-22-17.12-32.06a116,116,0,0,0-9.32-11.18c2-.65,4-1.35,6.08-1.93a190.8,190.8,0,0,1,22.59-5.37c15-2.56,30.28-3.47,43.54-.16,13.5,3.55,26.37,9.68,36,19s17.31,20.85,22.76,34,8.93,27.48,11.41,42.25c2.25,14.74,3.76,30.38,4.79,45.91,2.07,31.12,2.37,62.61,2.06,94.37,0,15.92-.44,31.67-.34,48.3.29,16.53,1.05,33.56,4.2,50.81s8.46,34.66,17.87,50.76a86.46,86.46,0,0,0,19,22.44A91.65,91.65,0,0,0,548.14,504a94.52,94.52,0,0,0,27.29,6.3,96.54,96.54,0,0,0,13.81.2c4.7-.12,8.8-1,13.18-1.48,17.23-2.64,34.87-9.18,48.77-20.3s23.92-25.29,31.49-39.89a260.38,260.38,0,0,0,14.61-34.17,139,139,0,0,0-2.4,14.42,112.55,112.55,0,0,0,.85,33.08,90.45,90.45,0,0,0,4.4,16c1,2.58,2.06,5.11,3.23,7.6s2.6,4.87,4.09,7.2c0-2.8-.19-5.51-.39-8.2s-.23-5.37-.52-8c-.26-5.29-.59-10.49-.74-15.68a301,301,0,0,1,.4-30.93c.77-10.3,2.14-20.65,3.89-31.06s3.8-20.91,5.33-31.68Z"></path></g></g></symbol><symbol id="WATERMAN" xmlns="http://www.w3.org/2000/svg" viewBox="0 0 749.2 339.58"><title>Aquarius</title><g data-name="Слой 2"><g data-name="Слой 1"><path d="M28.48,174c9.81-4.74,19.62-9.29,29-14.64C67,154.31,76.23,148.75,85.27,143a621,621,0,0,0,52.07-37.66C154.13,92,170.51,78,186.85,64l12.21-10.61,6.12-5.3,3.06-2.66.8-.68,1.12-.86,2.26-1.69a46.73,46.73,0,0,1,44.67-5.42c14.76,5.65,25.76,18.77,30.24,33.15l1.48,5.31.88,3.74,1.9,7.43c1.33,4.93,2.82,9.83,4.42,14.73s3.33,9.77,5.16,14.66l2.79,7.36.35.92a3.21,3.21,0,0,0,.29.67,4.14,4.14,0,0,1,.29.55c.15.4.44.6.58.92a3.51,3.51,0,0,0,2.3,1.33,1.7,1.7,0,0,0,1.36-.56c.11-.14.25-.26.42-.46a1.42,1.42,0,0,1,.25-.34l.09-.07.31-.42.64-.82,5.09-6.58q5.16-6.52,10.43-13,10.56-12.84,21.57-25.23c14.71-16.49,30-32.33,45.36-47.87l11.65-11.52,6-5.86c1.54-1.37,3.11-2.7,4.7-4a53.88,53.88,0,0,1,5.25-3.51A52,52,0,0,1,445.49,0,51,51,0,0,1,470.3,5.5a55.21,55.21,0,0,1,19,15.79,56.77,56.77,0,0,1,10.13,21.65l.62,2.86c.17.86.46,2.12.51,2.63l.6,3.92,1.25,7.83,2.7,15.64,3,15.62,1.6,7.8a9.54,9.54,0,0,0,.26,1l.12.62c.22.3.2.77.43,1a5,5,0,0,0,2.13,2.3,2.83,2.83,0,0,0,2.14.18c.18-.23.48-.13.73-.44a2,2,0,0,1,.44-.28l1.48-1.41,6-5.68,12-11.14L559.25,63.5l23.51-22.06,5.81-5.57,1.45-1.4,2-1.82a36,36,0,0,1,4.36-3.48,45.13,45.13,0,0,1,60.44,7.16c4.7,5.22,7.9,12.31,9.73,16.45,2.2,4.79,4.55,9.52,6.94,14.23,19.11,37.77,45.3,72.18,75.68,103.32-36-24.58-67.26-56.7-92.07-93.68-3.12-4.62-6-9.37-8.9-14.16-3.14-5.44-4.89-8.17-7.74-10.79a21.39,21.39,0,0,0-19.28-5.51,20.49,20.49,0,0,0-8.68,4.47,12.56,12.56,0,0,0-1.83,1.75l-.93,1L608.4,54.9,602.93,61c-7.32,8.14-14.71,16.22-22.25,24.12l-22.59,23.57L546.85,120.3l-5.53,5.78-1.4,1.47-2.6,2.4a40.68,40.68,0,0,1-5.9,4.25,37.19,37.19,0,0,1-29.31,3.32,39.41,39.41,0,0,1-22.42-17.83,44.36,44.36,0,0,1-3.09-6.31c-.4-1.08-.72-2.17-1.06-3.26s-.72-2.42-.81-2.89l-2-8L469.1,83c-1.18-5.42-2.3-10.85-3.31-16.31l-1.49-8.18-.72-4.1a9.37,9.37,0,0,0-.32-1.35l-.28-1.1a17.81,17.81,0,0,0-9.54-12.1,12.86,12.86,0,0,0-12.79.55,14.47,14.47,0,0,0-1.5,1,17.85,17.85,0,0,1-1.47,1.27l-5.59,5.5L420.7,59.56q-22.84,22.69-44.44,46.13-10.81,11.7-21.17,23.74-5.18,6-10.22,12.15l-5,6.13-.63.77-.91,1.06-2.46,2.69a42.68,42.68,0,0,1-5.76,4.79,37.91,37.91,0,0,1-29.58,5.84,39.89,39.89,0,0,1-13.79-6,41.52,41.52,0,0,1-10.3-10.31,45,45,0,0,1-3.46-6.13l-1.33-3.17a12.44,12.44,0,0,1-.45-1.22l-.34-1-2.62-8q-2.57-8-4.83-16.25c-1.5-5.49-2.89-11-4.11-16.64-.61-2.79-1.18-5.6-1.71-8.41l-.77-4.22L256.25,79c-1.52-6.32-5.44-11.73-10.94-14.33a18.07,18.07,0,0,0-17.3.72l-1.06.64-.54.31-.8.58-3.27,2.43-6.56,4.87c-4.35,3.26-8.83,6.4-13.23,9.61-17.69,12.77-35.71,25.22-54.3,36.9-18.71,11.5-37.86,22.47-57.88,31.59A348.31,348.31,0,0,1,28.48,174Z"></path><path d="M0,339.58c9.82-4.72,19.64-9.26,29-14.6,9.52-5.06,18.75-10.6,27.79-16.37A618.78,618.78,0,0,0,109,271c16.8-13.33,33.21-27.23,49.56-41.28l12.23-10.6,6.12-5.3,3.06-2.64.81-.69,1.12-.85,2.26-1.69a46.78,46.78,0,0,1,44.68-5.37c14.75,5.68,25.73,18.81,30.19,33.2l1.48,5.31.87,3.74,1.89,7.43c1.33,4.94,2.8,9.84,4.4,14.74s3.31,9.78,5.14,14.67l2.78,7.36.35.92a3,3,0,0,0,.29.67,4.25,4.25,0,0,1,.29.56c.15.39.44.59.58.91a3.45,3.45,0,0,0,2.3,1.34,1.8,1.8,0,0,0,1.36-.56c.11-.14.25-.26.41-.46a1.46,1.46,0,0,1,.26-.34l.08-.07.32-.41.63-.83,5.11-6.57q5.16-6.53,10.45-12.94,10.57-12.82,21.6-25.21c14.73-16.47,30-32.29,45.42-47.8l11.67-11.51,6-5.85c1.55-1.37,3.12-2.7,4.71-4a55,55,0,0,1,5.25-3.5,52,52,0,0,1,24.59-7.24,51.07,51.07,0,0,1,24.8,5.49,55.44,55.44,0,0,1,19,15.82,56.85,56.85,0,0,1,10.1,21.67l.62,2.86c.17.86.45,2.12.5,2.63l.6,3.92,1.24,7.84L476.78,242l3,15.62,1.58,7.81a9.54,9.54,0,0,0,.26,1l.13.63c.21.29.19.76.42,1a4.92,4.92,0,0,0,2.13,2.3,2.79,2.79,0,0,0,2.14.19c.18-.23.48-.13.72-.44a2,2,0,0,1,.45-.28l1.48-1.4,6-5.68,12-11.12,23.87-21.89,23.54-22,5.82-5.56,1.45-1.4,2-1.82a37,37,0,0,1,4.37-3.47,45.1,45.1,0,0,1,60.43,7.24c4.69,5.23,7.88,12.32,9.71,16.47,2.19,4.79,4.53,9.51,6.92,14.23,19.06,37.8,45.2,72.25,75.54,103.43-35.94-24.63-67.19-56.79-92-93.81-3.11-4.62-6-9.38-8.88-14.17-3.13-5.45-4.87-8.18-7.73-10.8a21.33,21.33,0,0,0-19.26-5.53,20.43,20.43,0,0,0-8.69,4.45,12.56,12.56,0,0,0-1.83,1.75l-.94,1-1.37,1.53-5.48,6.11c-7.33,8.12-14.73,16.19-22.27,24.09L529.7,275l-11.26,11.58-5.53,5.78-1.4,1.46-2.61,2.4a42,42,0,0,1-5.9,4.24,37.21,37.21,0,0,1-29.32,3.28,39.48,39.48,0,0,1-22.39-17.86,42.87,42.87,0,0,1-3.08-6.32c-.41-1.08-.72-2.16-1.06-3.26s-.72-2.42-.81-2.89l-1.94-8.05-3.66-16.2c-1.17-5.42-2.28-10.86-3.29-16.32L436,224.64l-.71-4.1a9.37,9.37,0,0,0-.32-1.35l-.27-1.1A17.87,17.87,0,0,0,425.15,206a12.9,12.9,0,0,0-12.8.53,14.47,14.47,0,0,0-1.5,1,17.85,17.85,0,0,1-1.47,1.27l-5.6,5.5-11.4,11.38q-22.89,22.66-44.51,46.07Q337,283.4,326.67,295.43q-5.18,6-10.23,12.13l-5,6.13-.63.77-.91,1.06-2.46,2.68a42,42,0,0,1-5.76,4.79,37.95,37.95,0,0,1-29.59,5.8,39.85,39.85,0,0,1-13.79-6A41.72,41.72,0,0,1,248,312.49a45.32,45.32,0,0,1-3.44-6.13l-1.33-3.17a12.44,12.44,0,0,1-.45-1.22l-.34-1-2.61-8c-1.69-5.35-3.31-10.77-4.81-16.27s-2.87-11-4.08-16.64c-.61-2.79-1.18-5.6-1.7-8.41l-.77-4.22-.54-2.56c-1.51-6.33-5.43-11.74-10.92-14.34a18,18,0,0,0-17.3.69l-1.06.64-.55.31-.79.58L194,235.21l-6.57,4.86c-4.35,3.26-8.83,6.39-13.24,9.59-17.7,12.75-35.74,25.17-54.35,36.84C101.12,298,82,308.91,61.92,318A347.52,347.52,0,0,1,0,339.58Z"></path></g></g></symbol><symbol id="TWEELINGEN" xmlns="http://www.w3.org/2000/svg" viewBox="0 0 451.14 497.29"><title>Gemini</title><g data-name="Слой 2"><g data-name="Слой 1"><path d="M403.54,441.53c-18.25-10.28-37.87-17.89-57.88-23.69-9.15-2.6-18.39-4.79-27.68-6.67q.82-37,1.18-74c.37-29.79.31-59.58.48-89.37l-.4-89.37-.57-44.69c-.25-10.75-.45-21.5-.7-32.25,11.11-2.84,22.11-6.14,32.95-10,19.59-7.16,38.67-16.17,56.11-27.85s33.36-26,44.11-43.58a236.86,236.86,0,0,1-53.06,26A410.15,410.15,0,0,1,342.26,41C304.49,48.6,266,52.35,227.47,53.76c-38.55,1.17-77.22-.16-115.47-5.14a432.47,432.47,0,0,1-56.87-11A253.64,253.64,0,0,1,0,16.11C12.35,32.53,29.47,45.46,47.59,55.76s37.88,17.89,57.88,23.7c5.78,1.64,11.6,3.09,17.44,4.44-.24,10.34-.43,20.67-.66,31l-.58,45.21-.4,90.41c.18,30.14.11,60.28.48,90.42q.41,38.83,1.25,77.67c-7.66,2.19-15.27,4.55-22.78,7.25C80.63,433,61.55,442,44.1,453.71S10.75,479.76,0,497.29c17.07-11.35,34.77-19.5,53.06-26a409.33,409.33,0,0,1,55.82-15.05c37.77-7.59,76.25-11.34,114.78-12.75,38.56-1.16,77.22.16,115.48,5.14a431,431,0,0,1,56.86,11,253.17,253.17,0,0,1,55.14,21.48C438.78,464.76,421.67,451.83,403.54,441.53ZM222.37,403.34A434.46,434.46,0,0,0,159.9,410q.72-34.5,1.06-69c.38-30.14.31-60.28.48-90.42l-.4-90.41-.57-45.21c-.18-8.12-.33-16.24-.5-24.35a433.73,433.73,0,0,0,68.8,3.4A437.69,437.69,0,0,0,281,89q-.25,12.36-.52,24.71l-.57,44.69-.4,89.37c.18,29.79.11,59.58.48,89.37q.36,34.19,1.07,68.38A438.67,438.67,0,0,0,222.37,403.34Z"></path></g></g></symbol><symbol id="VISSEN" xmlns="http://www.w3.org/2000/svg" viewBox="0 0 429.31 479.15"><title>Pisces</title><g data-name="Слой 2"><g data-name="Слой 1"><path d="M300.31,256c7.21-.29,14.43-.6,21.64-1,35.78-2,71.56-4.78,107.36-10.32-35.76-5.76-71.53-8.79-107.3-11-6.94-.41-13.89-.75-20.83-1.07.05-.74.06-1.48.12-2.21,3.26-42.76,13.78-84.89,32.34-123.93a331.34,331.34,0,0,1,33.72-56c13.16-17.81,28.39-34.39,45-50.48-42.58,18.23-79.52,51.27-105.33,91.65s-40.84,87.93-44.37,135.88c-.1,1.23-.15,2.45-.23,3.68q-23.88-.63-47.76-.73c-15.37,0-30.74.13-46.11.43-.07-1.13-.12-2.25-.2-3.38-3.53-47.95-18.45-95.44-44.38-135.88S61.27,18.23,18.69,0c16.64,16.09,31.86,32.67,45,50.48a331.34,331.34,0,0,1,33.72,56c18.57,39,29.08,81.17,32.35,123.93,0,.54.05,1.08.08,1.62-7.5.3-15,.62-22.5,1-35.78,2-71.57,4.78-107.36,10.28,35.76,5.73,71.52,8.75,107.29,11q11.73.69,23.46,1.21a386.17,386.17,0,0,1-12.94,103.14,381.9,381.9,0,0,1-56,120.48c19.06-13.17,35.69-30.06,49.92-48.86a277.49,277.49,0,0,0,34.87-61.87,312.12,312.12,0,0,0,22.64-111.53c15.14.39,30.28.65,45.42.7q23.64.09,47.28-.42a311.91,311.91,0,0,0,22.63,111.25,278.28,278.28,0,0,0,34.87,61.87c14.23,18.8,30.87,35.69,49.93,48.86a381.9,381.9,0,0,1-56.05-120.48A386.34,386.34,0,0,1,300.31,256Z"></path></g></g></symbol></svg>