<svg xmlns="http://www.w3.org/2000/svg" viewBox="0 0 546.03 510.83"><defs><style>.cls-1{fill:#262626;}</style></defs><title>Aries</title><g id="Слой_2" data-name="Слой 2"><g id="Слой_1-2" data-name="Слой 1"><path class="cls-1" d="M534.11,45.29C523.36,28.2,506.6,15.93,488.48,8.56a118.82,118.82,0,0,0-58-7.71,106,106,0,0,0-55.17,23c-1.93,1.67-4,3.24-5.8,5l-5.4,5.44c-3.26,3.77-6.36,7.24-9.46,11.36A186.83,186.83,0,0,0,339.8,70.58c-16.74,32.83-29.67,66.27-41.13,100.64-5.65,17.17-10.9,34.59-15.11,52.43-3.72,15.88-7.32,31.8-10.5,47.87-3.18-16.07-6.79-32-10.51-47.88-4.21-17.84-9.43-35.27-15.09-52.44C236,136.83,223.09,103.38,206.33,70.55a187.58,187.58,0,0,0-14.85-24.92c-3.1-4.12-6.21-7.59-9.46-11.37l-5.41-5.43c-1.83-1.78-3.87-3.35-5.8-5a106.17,106.17,0,0,0-55.2-23,118.79,118.79,0,0,0-58,7.72C39.45,15.89,22.69,28.17,11.92,45.26S-2.29,83.55,1.51,102.43c3.69,18.69,12.35,36.92,27,49.51,7.22,6.18,15.33,11.42,24.27,14.39a49.35,49.35,0,0,0,6.71,2,41,41,0,0,0,6.81,1.48c2.3.31,4.58.7,6.87.94L80,171a92.54,92.54,0,0,0,26.82-4.24c8.69-2.41,16.74-6.48,24.49-10.75-16.3,6.88-33.93,10.93-51,9.14a74,74,0,0,1-24.4-6.49c-7.7-3.34-14.3-8.62-20-14.44-11.35-11.9-17.61-27.88-19.55-44s2.15-32,11.35-44.33,22.72-21.5,37.67-26.53A95.06,95.06,0,0,1,112,25.91a83.19,83.19,0,0,1,40.82,19.3c1.36,1.31,2.82,2.48,4.1,3.86l3.8,4.16c2.38,3.05,5.06,6.32,7.15,9.38a163,163,0,0,1,11.35,21.28c7.14,15.41,13.46,31.66,19.31,48s11.41,32.88,16.35,49.53,9.35,33.38,13,50.12c3.62,17.13,7.13,34.27,10,51.44A860.46,860.46,0,0,1,250,386.34c2.08,34.63,2.14,70,3.67,105.94a19.36,19.36,0,0,0,38.68,0c1.5-35.91,1.6-71.31,3.64-105.94A864.9,864.9,0,0,1,308.14,283c2.9-17.17,6.42-34.31,10-51.44,3.64-16.74,8-33.47,13-50.13s10.47-33.17,16.34-49.54,12.17-32.6,19.31-48a163.19,163.19,0,0,1,11.37-21.29c2.08-3.06,4.77-6.33,7.14-9.39L389.13,49c1.28-1.37,2.74-2.55,4.1-3.86a83.36,83.36,0,0,1,40.85-19.32,95.18,95.18,0,0,1,46.65,3.45c15,5,28.59,14.1,37.69,26.55s13.26,28.25,11.34,44.36-8.2,32.11-19.56,44c-5.7,5.82-12.3,11.1-20,14.44a73.89,73.89,0,0,1-24.41,6.49c-17.12,1.78-34.76-2.27-51.05-9.16,7.75,4.26,15.8,8.33,24.49,10.74A92.2,92.2,0,0,0,466.05,171l6.9-.19c2.29-.24,4.57-.63,6.87-1a41,41,0,0,0,6.81-1.48,48.79,48.79,0,0,0,6.7-2c8.94-3,17.05-8.22,24.27-14.39,14.58-12.59,23.25-30.8,26.93-49.5C548.33,83.55,545,62.29,534.11,45.29Z"/></g></g></svg>