<svg xmlns="http://www.w3.org/2000/svg" viewBox="0 0 551.6 497.9"><defs><style>.cls-1{fill:#262626;}</style></defs><title>Capricorn</title><g id="Слой_2" data-name="Слой 2"><g id="Слой_1-2" data-name="Слой 1"><path class="cls-1" d="M551.34,371.65C549,341.76,531,315,505.92,300.93a87.74,87.74,0,0,0-41.25-11.58,101,101,0,0,0-20.75,1.87,113.49,113.49,0,0,0-19.57,5.61A110.93,110.93,0,0,0,390.17,318c-2,1.76-3.86,3.65-5.7,5.6,0-1.09-.06-2.17-.07-3.25-.07-5.6,0-11.31.08-17.3q.09-17.75-.16-35.63c-.32-23.84-1.59-47.86-4.16-71.89-1.41-12.05-3-23.88-5.37-36.17A204.65,204.65,0,0,0,364.34,123,131.14,131.14,0,0,0,345,88.86a90.69,90.69,0,0,0-31.26-25.27A92.19,92.19,0,0,0,295,56.88c-1.59-.44-3.2-.72-4.8-1l-2.41-.46L285,55a57,57,0,0,0-10.74-.18C260.41,56,248.33,61,237.4,67.21a125.9,125.9,0,0,0-34,28.63c-1.57-5.73-3.21-11.45-5.17-17.22a161,161,0,0,0-9.58-23.38l-1.56-3c-.57-1-1.3-2.16-1.95-3.23l-2.05-3.23-2-2.63a113.79,113.79,0,0,0-8.4-10.34,94.17,94.17,0,0,0-21.46-17.62,107.77,107.77,0,0,0-25.19-11,109.66,109.66,0,0,0-26.76-4,109.26,109.26,0,0,0-52.1,11.17c-16.1,8-31,20.78-39.45,38A74.88,74.88,0,0,0,.24,76.35a79.78,79.78,0,0,0,2.47,26.87,41.55,41.55,0,0,0,1.89,6.31l2.24,6.17,2.9,6c.5,1,1,2,1.5,2.94l1.78,2.8c4.46,7.62,10.83,14.07,17.65,19.45l5.32,3.8,5.72,3.09a41.07,41.07,0,0,0,5.89,2.58,44.11,44.11,0,0,0,6,2.09l6.13,1.53c2.06.39,4.14.57,6.19.85l3.08.38,3.08,0c2,0,4.09.08,6.12,0,4-.53,8.06-.65,11.93-1.69l5.78-1.3,5.6-1.83a99.17,99.17,0,0,0,20.6-10.3c-3.74.83-7.32,1.94-11,2.64-3.71.54-7.29,1.4-11,1.51l-5.42.47-5.41-.08c-3.58.13-7.11-.65-10.57-1-13.78-2.41-26.17-8.58-34.72-18A53.33,53.33,0,0,1,33.89,116l-1-2.1c-.28-.73-.48-1.5-.73-2.24l-1.44-4.44-.92-4.64A28.65,28.65,0,0,1,29.07,98a51.46,51.46,0,0,1,.52-17.92,45,45,0,0,1,6.13-15.52c5.85-9.38,15.38-16.65,26.43-21.18A78.68,78.68,0,0,1,97.66,37.6,73,73,0,0,1,131.12,48,63,63,0,0,1,144.3,59a77.77,77.77,0,0,1,5.84,7.1l1.44,1.85.95,1.54c.32.53.66,1,1,1.57l1,2a147.53,147.53,0,0,1,7.68,18.18c2.43,6.5,4.53,13.36,6.57,20.22,4,13.79,7.51,27.92,10.46,42.17s5.6,28.61,7.45,43l1.35,10.77,1.19,11.1,2.29,22.23c2.95,29.66,5.45,59.36,7.22,89.2.91,14.92,1.55,29.86,2.2,44.88L202.4,420c13.44-59,18.32-120.11,18.15-180.75,0-7.59-.1-15.18-.29-22.75L220,205.07l-.53-11.69c-1.06-15.52-2.63-30.93-5.12-46.22-2.06-12.87-4.5-25.69-7.6-38.46a111.12,111.12,0,0,1,9.93-9.49,117.32,117.32,0,0,1,28-17.69c9.95-4.4,20.64-7.24,30.36-7.25a37.08,37.08,0,0,1,6.84.71l1.58.38,1.88.56c1.25.38,2.52.72,3.73,1.19a70.17,70.17,0,0,1,13.84,6.51,72.46,72.46,0,0,1,21.53,20.69,104.36,104.36,0,0,1,13.24,28.18c6.35,20.45,8.49,42.83,9.86,65.8s1.42,45.87,1.06,69.06c-.21,11.59-.6,23.23-1,34.91-.18,5.77-.42,11.81-.48,18s-.05,12.29.17,18.52a242.56,242.56,0,0,0,4,37.9c.18.9.38,1.79.57,2.69-.39.94-.79,1.9-1.17,2.84-4.45,10.9-8.77,21.36-14.1,31.19-5.43,10-11.22,20.38-17.44,29.67a116.63,116.63,0,0,1-22.34,24.78c-8.67,7.14-18.76,12.81-29.34,17.58s-21.68,8.71-32.87,12.5a279.29,279.29,0,0,0,34.81-7.27,136.48,136.48,0,0,0,33.31-14.43c10.57-6.42,19.85-15.1,27.83-24.42s14.76-19,21.69-29c3.13-4.71,6-9.52,8.68-14.36,1,2.25,2,4.49,3.15,6.71a93.56,93.56,0,0,0,28.14,33.58,96.62,96.62,0,0,0,40.31,16.72,112.65,112.65,0,0,0,42.09-.16,104.45,104.45,0,0,0,39.57-16.46,87.63,87.63,0,0,0,29-33.56A85.34,85.34,0,0,0,551.34,371.65Zm-41.4,27.13a50.84,50.84,0,0,1-17.19,18.76,66.63,66.63,0,0,1-25.27,10c-9.2,1.77-18.48,1.4-28-.25a53.95,53.95,0,0,1-41-30c-5.55-10.49-8.93-23-11-36.27a123.92,123.92,0,0,1,9.34-11.94,77.35,77.35,0,0,1,11.05-10.49,87.46,87.46,0,0,1,26.54-14,84.48,84.48,0,0,1,14.53-3.21,70.83,70.83,0,0,1,14.38-.45,55.2,55.2,0,0,1,25.59,8.62c15.44,9.79,25.92,27.07,26.41,44.37A49.87,49.87,0,0,1,509.94,398.78Z"/></g></g></svg>