<svg xmlns="http://www.w3.org/2000/svg" viewBox="0 0 637.58 498.08"><defs></defs><title>Cancer</title><g id="Слой_2" data-name="Слой 2"><g id="Слой_1-2" data-name="Слой 1"><path  d="M174.82,391.68a148.79,148.79,0,0,0,42.57-15.25,137.64,137.64,0,0,0,35.54-28c20.44-22.3,33.2-51.75,34.13-82.21a114.08,114.08,0,0,0-31.31-82.37,125.25,125.25,0,0,0-35-26.24,126.73,126.73,0,0,0-41.34-12.21c-28.4-3.25-56.55,2.21-81.57,13.1a177.09,177.09,0,0,0-45.66,28.89c2.53-5.44,5.11-10.87,8.08-16.12,11.82-21.44,27.42-41,45.33-58.35a319.06,319.06,0,0,1,60.32-45.26C209.79,42,259.53,25.51,310.84,19a358.81,358.81,0,0,1,77.83-1.62,316.72,316.72,0,0,1,38.88,5.76A190.76,190.76,0,0,1,465.23,35c-11.16-7.27-23.46-12.85-36.1-17.44a317.81,317.81,0,0,0-38.9-10.73C363.8,1.34,336.56-.6,309.37.16A376.88,376.88,0,0,0,151.33,41a329.09,329.09,0,0,0-68.89,46.9,273.73,273.73,0,0,0-54,65.14c-3.67,6.13-7,12.48-10.09,18.95a218.16,218.16,0,0,0-8.39,20.14A176,176,0,0,0,.6,235.55C-1.87,265.1,3.2,296,17.85,323.25a134.13,134.13,0,0,0,12.84,19.38A125.44,125.44,0,0,0,47,359.5a141.45,141.45,0,0,0,39.25,23.58A160.17,160.17,0,0,0,174.82,391.68ZM51.9,304.79C41.19,285.29,37,261.74,38.7,238.54a138.06,138.06,0,0,1,6.73-34.25c1.12-3.34,2.47-6.8,3.9-10.26A157.14,157.14,0,0,1,65.8,183.75a177.69,177.69,0,0,1,35.76-15.22,174.39,174.39,0,0,1,37.58-7,132.26,132.26,0,0,1,37.21,2.6A108.68,108.68,0,0,1,210,177.25a104.09,104.09,0,0,1,26.66,23.37,101.69,101.69,0,0,1,9.75,14.48,92.35,92.35,0,0,1,6.7,15.81,88.23,88.23,0,0,1,3.57,33.62c-1.92,22.63-12.61,44.32-28.58,60.48a108.22,108.22,0,0,1-27.42,20,112.48,112.48,0,0,1-32.35,10.53C123.31,363.08,71.79,344,51.9,304.79Z"/><path d="M630.17,218.43a131.11,131.11,0,0,0-9.46-21.36,121.37,121.37,0,0,0-13.52-19.45,136.68,136.68,0,0,0-35.5-29.41,158.43,158.43,0,0,0-86.76-20.81,150.71,150.71,0,0,0-44.25,9.26,141.38,141.38,0,0,0-39.17,22.48c-23.49,18.9-40.85,45.64-47,75.49a113.46,113.46,0,0,0-.32,45.36,120.9,120.9,0,0,0,6.64,21.69,115.18,115.18,0,0,0,10.78,19.66,121.13,121.13,0,0,0,30.81,31.38,124.4,124.4,0,0,0,39.42,17.84c27.8,7,56.45,5.3,82.74-2.15a181.12,181.12,0,0,0,48.53-21.76l0,0c-3.45,5.05-7,10.08-10.78,14.91-15.17,19.37-33.66,36.33-54,50.95a332.66,332.66,0,0,1-66.45,36.25,391.3,391.3,0,0,1-150.61,28.48,356.69,356.69,0,0,1-77.46-8.91A314.19,314.19,0,0,1,176,457.3a185,185,0,0,1-35.69-17.09c10,8.84,21.43,16.11,33.34,22.42a311.37,311.37,0,0,0,37.13,16,347,347,0,0,0,79.38,17.55,383.06,383.06,0,0,0,162.37-18.95,340.34,340.34,0,0,0,74.94-36.53,284.45,284.45,0,0,0,63.36-56q6.84-8.24,13-17.06c4.05-6,7.88-11.82,11.55-18.42A180.1,180.1,0,0,0,632,308C639.48,279.31,640,248,630.17,218.43Zm-35.21,80A141.72,141.72,0,0,1,582.4,331.2c-1.55,2.93-3.33,5.95-5.19,8.95a160.29,160.29,0,0,1-17.37,7.64,181.21,181.21,0,0,1-37.62,10.15,178.43,178.43,0,0,1-38.27,2,132.93,132.93,0,0,1-36.6-7.53,106.05,106.05,0,0,1-31.5-17.61,99.74,99.74,0,0,1-22.76-27,97.79,97.79,0,0,1-7.27-15.8,93.85,93.85,0,0,1-4-16.66,90.32,90.32,0,0,1-.5-17,96.5,96.5,0,0,1,2.78-16.78c5.82-22.06,20-41.79,38.38-55.46a112.92,112.92,0,0,1,30.27-15.94,115,115,0,0,1,33.66-6c45.76-1.45,94.22,24.8,107,66.74C600.68,251.83,600.68,275.81,595,298.45Z"/></g></g></svg>
