<svg xmlns="http://www.w3.org/2000/svg" viewBox="0 0 515.44 507.57"><defs><style>.cls-1{fill:#262626;}</style></defs><title>Leo</title><g id="Слой_2" data-name="Слой 2"><g id="Слой_1-2" data-name="Слой 1"><path class="cls-1" d="M510.92,393.19a64.85,64.85,0,0,0-17.54-25.26c-7.85-7.24-18.24-10.82-28.22-11.62a55.49,55.49,0,0,0-29.11,5.54,40.24,40.24,0,0,0-11.72,8.91,33.21,33.21,0,0,0-7,12.62c3.72-8.94,11.41-15.43,20-18.77a51.06,51.06,0,0,1,27.13-2.46c8.94,1.55,17.37,5.38,23.16,11.79a55.15,55.15,0,0,1,13.13,22.73c4.86,16.84,1.64,35.48-7.55,50A79.36,79.36,0,0,1,485.22,457a85.41,85.41,0,0,1-9.4,9.15,82.17,82.17,0,0,1-22.2,13.13c-16,6.43-33.93,7.9-51.43,5.69s-34.83-7.73-49-16.76a100.88,100.88,0,0,1-34-36.7A107,107,0,0,1,310,407.88a187.09,187.09,0,0,1-5.12-26.17,239.59,239.59,0,0,1-.38-53.81A281.54,281.54,0,0,1,315,274.8c1.27-4.39,2.73-8.48,4.22-13l4.73-13.75c3.11-9.22,6.12-18.53,8.95-27.93a568.88,568.88,0,0,0,14.42-57.59c3.75-19.66,6.12-39.9,5.66-61A158.2,158.2,0,0,0,349,69.21C346.42,58.28,342.3,47,335.36,36.64a78.32,78.32,0,0,0-27.79-25.4A96,96,0,0,0,273.26.85,138.39,138.39,0,0,0,256.49,0c-2.69,0-5.73.24-8.58.36-2.89.31-5.79.59-8.69,1.09-11.54,2-23.17,5.7-33.68,12.18a86.46,86.46,0,0,0-14.8,11.24,83.62,83.62,0,0,0-12,14.46c-7,10.4-11,22.6-13.07,33.56-4.27,22.63-1.9,44.65,2.64,64.81s11.43,39.13,18.35,57.27c3.59,9.27,6.66,17.27,9.39,26,1.19,3.72,2.27,7.46,3.32,11.21a93.82,93.82,0,0,0-13.75-13C170,207.16,151,199.72,131.32,196.58S90.73,195,71.5,203a114.21,114.21,0,0,0-48.22,37.67A119.52,119.52,0,0,0,.76,298.44c-2.62,21.13,1.66,43.3,11.4,62.35a117.79,117.79,0,0,0,43.17,47,122.53,122.53,0,0,0,61.89,17.94,130,130,0,0,0,32.29-3.51c2.66-.59,5.28-1.3,7.88-2.12s5.17-1.67,7.73-2.59a107.28,107.28,0,0,0,15.23-7c19.77-10.82,35.43-27.86,46-47a138,138,0,0,0,12.29-30.36,142.78,142.78,0,0,0,3.38-16c.84-5.5,1.22-10.74,1.55-15.94a251.26,251.26,0,0,0-4.69-61.6q-3-15-7.33-29.62c-2.86-9.61-6.54-19.56-9.77-28.2-6.54-17.72-12.48-35.11-16.17-52.33s-5.13-34.14-2.11-49.3c1.58-7.79,3.81-14.16,7.57-19.7a44.93,44.93,0,0,1,6.34-7.63,47.83,47.83,0,0,1,8.09-6.06,57.52,57.52,0,0,1,20.07-7.22,71.73,71.73,0,0,1,11.34-1,95.19,95.19,0,0,1,11.94.53A57.47,57.47,0,0,1,289.32,45a39.87,39.87,0,0,1,14.26,13c7.71,11.11,11.17,27.63,11.8,44.74s-1.34,35.32-4.25,53.37a536.05,536.05,0,0,1-12.23,54.23q-3.73,13.53-8,27l-4.3,13.54c-1.42,4.64-3.05,9.63-4.33,14.48A308.06,308.06,0,0,0,272,325.22a271.07,271.07,0,0,0,2.86,60.91,218.38,218.38,0,0,0,7.11,30,136.19,136.19,0,0,0,12.81,29.3,123.54,123.54,0,0,0,45.36,44.73A130.28,130.28,0,0,0,369.53,502a155.32,155.32,0,0,0,30.58,5.18c20.56,1.41,42-1.33,61.19-10.44a100.24,100.24,0,0,0,25.92-17.89,104.07,104.07,0,0,0,10.41-11.65,96,96,0,0,0,8.6-13.09C516.19,435.54,518.56,412.8,510.92,393.19ZM208.5,299.69a113.54,113.54,0,0,1-3.16,24.83,103.93,103.93,0,0,1-8.68,23,88.68,88.68,0,0,1-32.35,35.15,75.42,75.42,0,0,1-10.7,5.39c-1.92.78-3.83,1.6-5.81,2.21s-3.93,1.34-5.94,1.86a99.86,99.86,0,0,1-24.6,3.68,93.73,93.73,0,0,1-47.79-11.79A96.37,96.37,0,0,1,34.14,349a85.71,85.71,0,0,1-11.65-48.58,102.89,102.89,0,0,1,15.93-49.21,97.75,97.75,0,0,1,39-35.1c15.78-7.87,34.41-10.59,52.7-9.34,18.31,1.41,36.61,7,52.33,17a91.08,91.08,0,0,1,18.87,15.87c.62,2.46,1.28,4.91,1.82,7.38A215.54,215.54,0,0,1,208.5,299.69Z"/></g></g></svg>