<svg xmlns="http://www.w3.org/2000/svg" viewBox="0 0 681.73 514.01"><defs><style>.cls-1{fill:#262626;}</style></defs><title>Libra</title><g id="Слой_2" data-name="Слой 2"><g id="Слой_1-2" data-name="Слой 1"><path class="cls-1" d="M650.33,483.67c-207.59-62.05-415.85-62-619,0a15.5,15.5,0,1,0,9.06,29.64c197.22-60.24,399.46-60.24,601.09,0a15.49,15.49,0,1,0,8.87-29.68Z"/><path class="cls-1" d="M669,389a492.05,492.05,0,0,0-65.43-18.68,640.22,640.22,0,0,0-66.23-10.59,685.54,685.54,0,0,0-74-3.87c3.48-1.82,6.93-3.7,10.33-5.7a213.53,213.53,0,0,0,56-46.9,172.38,172.38,0,0,0,33.7-66.78l1.22-4.59c.37-1.54.56-3.11.85-4.67l1.53-9.37a80.64,80.64,0,0,0,.89-9.43l.57-9.45a186.69,186.69,0,0,0-3-37.62,174.64,174.64,0,0,0-29.26-69.81,200.76,200.76,0,0,0-54.46-52c-21-13.76-44.16-23.53-68-30A280.76,280.76,0,0,0,268,9.63c-23.82,6.43-47,16.19-68,29.94a201.19,201.19,0,0,0-54.47,52,174.63,174.63,0,0,0-29.28,69.8,188.24,188.24,0,0,0-3,37.62l.58,9.45a80.64,80.64,0,0,0,.89,9.43l1.52,9.37c.29,1.56.49,3.13.84,4.67l1.23,4.59A172.38,172.38,0,0,0,152,303.25a213.17,213.17,0,0,0,56,46.91c3.41,2,6.88,3.9,10.37,5.73a685.68,685.68,0,0,0-74,3.87,640.65,640.65,0,0,0-66.23,10.59A492.05,492.05,0,0,0,12.7,389c-.43.16-.9.35-1.32.55a19.38,19.38,0,1,0,16,35.3l.13-.06a453.43,453.43,0,0,1,58.93-21.61,603.51,603.51,0,0,1,62.07-14.7,655.55,655.55,0,0,1,127.85-10.65A9.74,9.74,0,0,0,280.06,359l-.25-.09,0,0a265.59,265.59,0,0,1-58.63-29.68c-17.9-12.24-33.94-26.84-46.42-43.76a142.87,142.87,0,0,1-25.2-56.17l-.84-3.74c-.23-1.26-.31-2.55-.48-3.82l-.95-7.63a59.68,59.68,0,0,1-.45-7.69l-.23-7.71A153.41,153.41,0,0,1,150,168.05a146.67,146.67,0,0,1,25-55.35,164.1,164.1,0,0,1,45.3-41.41c35.19-22.31,78-32.66,120.58-32.56,42.55-.09,85.39,10.26,120.56,32.59a163.65,163.65,0,0,1,45.29,41.42,146.5,146.5,0,0,1,25,55.35,154.15,154.15,0,0,1,3.45,30.68l-.24,7.71a57.94,57.94,0,0,1-.46,7.69l-.94,7.63c-.17,1.27-.25,2.56-.49,3.82l-.84,3.74A142.89,142.89,0,0,1,507,285.53c-12.49,16.91-28.53,31.51-46.43,43.75A266.06,266.06,0,0,1,401.92,359a9.75,9.75,0,0,0,3.34,18.91h.09A655.42,655.42,0,0,1,533.2,388.51a604.32,604.32,0,0,1,62.08,14.7,453.29,453.29,0,0,1,58.92,21.61l.17.08c.42.18.85.36,1.29.52A19.38,19.38,0,1,0,669,389Z"/></g></g></svg>