<svg xmlns="http://www.w3.org/2000/svg" viewBox="0 0 494.28 509.95"><defs><style>.cls-1{fill:#262626;}</style></defs><title>Sagittarius</title><g id="Слой_2" data-name="Слой 2"><g id="Слой_1-2" data-name="Слой 1"><path class="cls-1" d="M494,143.31c-.75-23.27-3.47-47-10.33-70.68a190.52,190.52,0,0,0-14-34.54A196.92,196.92,0,0,0,449,7,19,19,0,0,0,434,0h-.31a820.13,820.13,0,0,0-93.16,7,596.46,596.46,0,0,0-91.92,19.54,486.72,486.72,0,0,0-87,35.28,412,412,0,0,0-77.21,52c28.34-12.42,56.52-23.82,85.19-33.21a758,758,0,0,1,86.85-23c29.25-6,58.81-10.1,88.56-13.2q23.15-2.31,46.45-3.8c-59.46,70.75-120,140.75-180.71,210.73Q192,272.9,173.26,294.47A413.2,413.2,0,0,0,94.18,257.3c-7.37-2.77-15.12-4.7-22.72-6.8-7.54-2.28-15.46-3.48-23.19-5l-5.82-1c-2-.25-4-.44-5.93-.62-4-.36-7.87-.76-11.8-1-7.85-.58-15.85,0-23.58.34,30.11,8.55,57.8,20.44,84.94,33.76,23.67,11.67,46.67,24.58,69.19,38.28-51.36,59.24-102.64,118.6-153,178.84a9.69,9.69,0,0,0,14.67,12.65l0,0c53-59.59,107-118.38,161.12-177.11,20.91,13.61,41.35,27.95,61.08,43.28,23.85,18.6,46.67,38.29,67.71,61.48-3.1-7.11-6.15-14.5-10.1-21.31-2-3.42-4.06-6.76-6.11-10.15l-3.16-5.05L284,393a299.55,299.55,0,0,0-30.69-36.1,406.93,406.93,0,0,0-56.79-47.4q17.9-19.42,35.8-38.85C299.68,197.57,367,124.41,433.25,49.94a171.83,171.83,0,0,1,16.93,33.81c7.26,19.38,11.85,40.57,15.43,62.29s6.09,44.05,8.53,66.49l3.73,33.79c1.25,11.3,2.52,22.63,4.13,34,2.22-11.26,4.06-22.54,5.61-33.86s3-22.67,4-34.07A556.27,556.27,0,0,0,494,143.31Z"/></g></g></svg>