<svg xmlns="http://www.w3.org/2000/svg" viewBox="0 0 715.43 510.66"><defs></defs><title>Scorpio</title><g id="Слой_2" data-name="Слой 2"><g id="Слой_1-2" data-name="Слой 1"><path d="M715.43,367.38h0c-6.16,9.4-12,18.56-18.58,27.06a180,180,0,0,1-21.37,23.42,187,187,0,0,1-25.22,19c-9,5.75-18.56,10.81-28.45,16.33a94.33,94.33,0,0,0,32.89-7.94,100.07,100.07,0,0,0,28.62-18.94,108.5,108.5,0,0,0,11.13-12.26L688,424c-4.44,6.65-8.92,13.23-13.84,19.36a169.52,169.52,0,0,1-15.42,17.25c-5.62,5-11.32,9.84-17.74,13.2a74.91,74.91,0,0,1-19.79,8,99.35,99.35,0,0,1-10.49,2.11c-3.59.42-7.19.75-10.82.92-7.53.19-14.31.09-21-1.27a72.25,72.25,0,0,1-18.95-6.39,59.11,59.11,0,0,1-26.45-26.19,129.52,129.52,0,0,1-11.39-40.39c-1.89-14.45-2.25-29.6-1.91-45.11l1.24-47.91c.2-16.19.26-32.46-.15-48.79S520,236,518.36,219.59s-3.61-32.71-7.16-49.52a209.57,209.57,0,0,0-16.71-49.52c-8-15.94-19.43-31.14-34.32-42.48-3.69-2.83-7.75-5.22-11.67-7.68-4.2-2-8.24-4.32-12.59-5.82a114,114,0,0,0-26.47-6.49,104.78,104.78,0,0,0-26.83,1,138.32,138.32,0,0,0-24.84,6.36,187.5,187.5,0,0,0-32.89,15.33,106.05,106.05,0,0,0-8.92-7c-2.67-1.73-5.33-3.47-8-5.1l-8.55-4.09a68.14,68.14,0,0,0-8.76-3.31,57,57,0,0,0-8.91-2.53l-9-1.8a74.21,74.21,0,0,0-9.39-.9,98.19,98.19,0,0,0-18.18,1A136.41,136.41,0,0,0,212,66.42c-4.17,1.73-8.19,3.67-12.15,5.73-.35-.92-.64-1.83-1-2.76-.73-2-1.73-4.13-2.65-6.2s-1.83-4.15-3-6.32a70.91,70.91,0,0,0-3.66-6.57A61.25,61.25,0,0,0,185.2,44a111.66,111.66,0,0,0-19.74-21A106.89,106.89,0,0,0,112.37.86,114.93,114.93,0,0,0,56.58,7.77a100.36,100.36,0,0,0-25,14A86.35,86.35,0,0,0,11.79,43.34,74.44,74.44,0,0,0,1.13,70.9a80.69,80.69,0,0,0,.31,28.64,95.3,95.3,0,0,0,3.73,13.35,83.26,83.26,0,0,0,5.54,12.68c4.64,8,10.24,15.56,17.34,21.52a75.22,75.22,0,0,0,23.58,13.4,78,78,0,0,0,25.91,3.83c17.24-.47,33.35-6.29,47-14.87L118.68,151a52.86,52.86,0,0,1-5.8,1.45,91,91,0,0,1-11.71,1.75,81.88,81.88,0,0,1-22.91-.61,72.57,72.57,0,0,1-20.7-7.07,60.22,60.22,0,0,1-16.23-13.07A61.12,61.12,0,0,1,31,116c-1-3.28-2.28-6.39-2.81-9.82A72.27,72.27,0,0,1,26.65,96a58.87,58.87,0,0,1,2-19.16A48.72,48.72,0,0,1,36.89,60.6c7.49-9.68,18.78-16.79,31.28-20.71a84.58,84.58,0,0,1,39-2.66c12.76,2.29,24.78,7.34,34.16,15.43a74.73,74.73,0,0,1,12.87,14.15,27.09,27.09,0,0,1,2.44,3.63,36.75,36.75,0,0,1,2.14,4,49.88,49.88,0,0,1,2.11,4.55c.69,1.6,1.4,3.13,2,4.87,5.4,13.43,9.73,28.29,13.48,43.23s7,30.2,9.73,45.48,4.77,30.49,6.31,46.11c.77,7.89,1.52,15.77,2.17,23.67s1.38,15.81,2,23.72c5,63.34,6.65,127.08,8.57,191.68C219.18,394.62,226,330,226.88,265.09q.36-24.33-.48-48.68a470.08,470.08,0,0,0-4.07-49.48c-2.14-16.41-5.2-32.65-8.83-48.87-2.57-11-5.55-22-9.15-33.06,14.37-3,28.61-4.77,42.15-4.13a76.8,76.8,0,0,1,13.83,1.73,64.85,64.85,0,0,1,6.41,1.69l6.5,2.39c8.4,3.56,16.28,7.68,22.71,13.59a91.09,91.09,0,0,1,16.89,20.08,133.65,133.65,0,0,1,11.51,25.14,190.79,190.79,0,0,1,7.4,28.13c2,9.72,3.37,19.61,4.58,30,5,41.09,6.8,83.09,8.9,125.67s3.89,85.22,10,128.43c4.76-21.11,8.26-42.39,11.48-63.73,1.55-10.67,3-21.35,4.37-32.05s2.55-21.41,3.43-32.14c3.65-42.88,4.9-86.58.33-130.53-2.41-21.86-6.14-44.83-14.93-67-4.45-11-9.82-22-17.12-32.06a116,116,0,0,0-9.32-11.18c2-.65,4-1.35,6.08-1.93a190.8,190.8,0,0,1,22.59-5.37c15-2.56,30.28-3.47,43.54-.16,13.5,3.55,26.37,9.68,36,19s17.31,20.85,22.76,34,8.93,27.48,11.41,42.25c2.25,14.74,3.76,30.38,4.79,45.91,2.07,31.12,2.37,62.61,2.06,94.37,0,15.92-.44,31.67-.34,48.3.29,16.53,1.05,33.56,4.2,50.81s8.46,34.66,17.87,50.76a86.46,86.46,0,0,0,19,22.44A91.65,91.65,0,0,0,548.14,504a94.52,94.52,0,0,0,27.29,6.3,96.54,96.54,0,0,0,13.81.2c4.7-.12,8.8-1,13.18-1.48,17.23-2.64,34.87-9.18,48.77-20.3s23.92-25.29,31.49-39.89a260.38,260.38,0,0,0,14.61-34.17,139,139,0,0,0-2.4,14.42,112.55,112.55,0,0,0,.85,33.08,90.45,90.45,0,0,0,4.4,16c1,2.58,2.06,5.11,3.23,7.6s2.6,4.87,4.09,7.2c0-2.8-.19-5.51-.39-8.2s-.23-5.37-.52-8c-.26-5.29-.59-10.49-.74-15.68a301,301,0,0,1,.4-30.93c.77-10.3,2.14-20.65,3.89-31.06s3.8-20.91,5.33-31.68Z"/></g></g></svg>
