<svg xmlns="http://www.w3.org/2000/svg" viewBox="0 0 429.44 510.83"><defs></defs><title>Taurus</title><g id="Слой_2" data-name="Слой 2"><g id="Слой_1-2" data-name="Слой 1"><path d="M350.59,208.33a200,200,0,0,0-63-38.83c-2.42-.92-4.87-1.76-7.32-2.58a88.39,88.39,0,0,0,6.63-8.66l1.61-2.47,1.37-2.32c.93-1.55,1.79-3.11,2.63-4.68a232.44,232.44,0,0,0,15.58-37.32c4.15-12.08,7.65-23.64,12-34.29,8.54-21.5,20.61-39.78,40.35-51.45,19.73-12,44.47-18,69-24.19A237.66,237.66,0,0,0,391.09.32,140.53,140.53,0,0,0,352,7.67,99,99,0,0,0,316.24,29.9c-10.29,9.89-18.36,21.55-24.9,33.4s-11.69,24-16.61,35.24-9.78,21.84-15.59,31c-.72,1.15-1.44,2.29-2.2,3.39l-1.12,1.66-1,1.43a49.2,49.2,0,0,1-4.34,5.17,43.83,43.83,0,0,1-10.28,7.91,56.93,56.93,0,0,1-12.5,5.26,49.25,49.25,0,0,1-25.95,0,56.85,56.85,0,0,1-12.49-5.26A43.89,43.89,0,0,1,179,141.23a50.45,50.45,0,0,1-4.34-5.17l-1-1.43L172.5,133c-.76-1.1-1.49-2.24-2.21-3.39-5.8-9.2-10.56-19.78-15.58-31s-10-23.3-16.61-35.24-14.61-23.51-24.9-33.4A99,99,0,0,0,77.43,7.67,140.39,140.39,0,0,0,38.35.32,237.66,237.66,0,0,0,0,1.54c24.57,6.15,49.3,12.2,69,24.19,19.74,11.67,31.81,30,40.35,51.45,4.33,10.65,7.83,22.21,12,34.29A231.53,231.53,0,0,0,137,148.79c.84,1.57,1.7,3.13,2.62,4.68l1.38,2.32,1.61,2.47a89.87,89.87,0,0,0,6.62,8.66c-2.45.82-4.89,1.66-7.31,2.58a200.14,200.14,0,0,0-63,38.83A182.72,182.72,0,0,0,35.7,268.27a164.83,164.83,0,0,0-14.41,72,162.78,162.78,0,0,0,18.1,70.22,174.8,174.8,0,0,0,45.23,55.07,193.61,193.61,0,0,0,61.43,33.86,212.14,212.14,0,0,0,137.33,0,193.66,193.66,0,0,0,61.44-33.86,175.08,175.08,0,0,0,45.23-55.07,162.92,162.92,0,0,0,18.1-70.22,165,165,0,0,0-14.41-72A182.75,182.75,0,0,0,350.59,208.33ZM332.82,451.75a172.76,172.76,0,0,1-54.44,33.79,178.33,178.33,0,0,1-127.32,0,172.92,172.92,0,0,1-54.45-33.79c-31.28-29-49.89-70.34-48.24-111.49a135.8,135.8,0,0,1,15.46-58.55,147.93,147.93,0,0,1,38.56-46.3,166.72,166.72,0,0,1,52.85-28.83,185.19,185.19,0,0,1,119,0,166.76,166.76,0,0,1,52.86,28.83,147.93,147.93,0,0,1,38.56,46.3,135.8,135.8,0,0,1,15.46,58.55C382.72,381.41,364.11,422.75,332.82,451.75Z"/></g></g></svg>
