<svg xmlns="http://www.w3.org/2000/svg" viewBox="0 0 451.14 497.29"><defs></defs><title>Gemini</title><g id="Слой_2" data-name="Слой 2"><g id="Слой_1-2" data-name="Слой 1"><path d="M403.54,441.53c-18.25-10.28-37.87-17.89-57.88-23.69-9.15-2.6-18.39-4.79-27.68-6.67q.82-37,1.18-74c.37-29.79.31-59.58.48-89.37l-.4-89.37-.57-44.69c-.25-10.75-.45-21.5-.7-32.25,11.11-2.84,22.11-6.14,32.95-10,19.59-7.16,38.67-16.17,56.11-27.85s33.36-26,44.11-43.58a236.86,236.86,0,0,1-53.06,26A410.15,410.15,0,0,1,342.26,41C304.49,48.6,266,52.35,227.47,53.76c-38.55,1.17-77.22-.16-115.47-5.14a432.47,432.47,0,0,1-56.87-11A253.64,253.64,0,0,1,0,16.11C12.35,32.53,29.47,45.46,47.59,55.76s37.88,17.89,57.88,23.7c5.78,1.64,11.6,3.09,17.44,4.44-.24,10.34-.43,20.67-.66,31l-.58,45.21-.4,90.41c.18,30.14.11,60.28.48,90.42q.41,38.83,1.25,77.67c-7.66,2.19-15.27,4.55-22.78,7.25C80.63,433,61.55,442,44.1,453.71S10.75,479.76,0,497.29c17.07-11.35,34.77-19.5,53.06-26a409.33,409.33,0,0,1,55.82-15.05c37.77-7.59,76.25-11.34,114.78-12.75,38.56-1.16,77.22.16,115.48,5.14a431,431,0,0,1,56.86,11,253.17,253.17,0,0,1,55.14,21.48C438.78,464.76,421.67,451.83,403.54,441.53ZM222.37,403.34A434.46,434.46,0,0,0,159.9,410q.72-34.5,1.06-69c.38-30.14.31-60.28.48-90.42l-.4-90.41-.57-45.21c-.18-8.12-.33-16.24-.5-24.35a433.73,433.73,0,0,0,68.8,3.4A437.69,437.69,0,0,0,281,89q-.25,12.36-.52,24.71l-.57,44.69-.4,89.37c.18,29.79.11,59.58.48,89.37q.36,34.19,1.07,68.38A438.67,438.67,0,0,0,222.37,403.34Z"/></g></g></svg>
