<svg xmlns="http://www.w3.org/2000/svg" viewBox="0 0 645.62 497.17"><defs><style>.cls-1{fill:#262626;}</style></defs><title>Virgo</title><g id="Слой_2" data-name="Слой 2"><g id="Слой_1-2" data-name="Слой 1"><path class="cls-1" d="M645.49,180.34a75.74,75.74,0,0,0-4.39-22.9,63.17,63.17,0,0,0-5.4-11.3,60.23,60.23,0,0,0-7.74-10.2,44,44,0,0,0-11.65-8.83,39.91,39.91,0,0,0-15-4.29A43,43,0,0,0,587,124.15a57.78,57.78,0,0,0-11.58,4.61,83.33,83.33,0,0,0-17.64,12.7,136.52,136.52,0,0,0-24.73,31,194.17,194.17,0,0,0-15.45,34.11c-.51-5-1-10-1.66-15a289.34,289.34,0,0,0-7.7-39c-3.7-13-8.44-26-15.35-38.4a119.52,119.52,0,0,0-27-33.67,101.68,101.68,0,0,0-38.38-20.54c-7-1.6-13.75-3.3-21.21-3.73a107.64,107.64,0,0,0-21.13,1A154.18,154.18,0,0,0,347,68.62c-5.93,2.73-11.73,5.6-17.32,8.81-1.69,1-3.35,2.06-5,3.1A105.12,105.12,0,0,0,316,73.77c-2.67-1.73-5.33-3.47-8-5.1l-8.55-4.09a68.14,68.14,0,0,0-8.76-3.31,57.27,57.27,0,0,0-8.91-2.53l-9-1.8a74.21,74.21,0,0,0-9.39-.9,98.14,98.14,0,0,0-18.18,1A136.41,136.41,0,0,0,212,66.42c-4.16,1.73-8.19,3.67-12.15,5.73-.35-.92-.64-1.83-1-2.76-.73-2-1.73-4.13-2.65-6.2s-1.83-4.15-3-6.32a70.91,70.91,0,0,0-3.66-6.57A61.25,61.25,0,0,0,185.2,44a111.66,111.66,0,0,0-19.74-21A106.89,106.89,0,0,0,112.37.86,114.93,114.93,0,0,0,56.58,7.77a100.36,100.36,0,0,0-25,14A86.35,86.35,0,0,0,11.79,43.34,74.44,74.44,0,0,0,1.13,70.9a80.69,80.69,0,0,0,.31,28.64,95.3,95.3,0,0,0,3.73,13.35,83.26,83.26,0,0,0,5.54,12.68c4.64,8,10.24,15.56,17.34,21.52a75.22,75.22,0,0,0,23.58,13.4,78,78,0,0,0,25.91,3.83c17.24-.47,33.35-6.29,47-14.87L118.68,151a52.86,52.86,0,0,1-5.8,1.45,91,91,0,0,1-11.71,1.75,81.88,81.88,0,0,1-22.91-.61,72.4,72.4,0,0,1-20.69-7.07,60.27,60.27,0,0,1-16.24-13.07A61.12,61.12,0,0,1,31,116c-1-3.28-2.28-6.39-2.81-9.82A72.27,72.27,0,0,1,26.65,96a58.87,58.87,0,0,1,2-19.16A48.91,48.91,0,0,1,36.89,60.6c7.49-9.68,18.78-16.79,31.28-20.71a84.58,84.58,0,0,1,39-2.66c12.76,2.29,24.78,7.34,34.16,15.43a74.73,74.73,0,0,1,12.87,14.15,26.15,26.15,0,0,1,2.44,3.63,36.75,36.75,0,0,1,2.14,4,49.88,49.88,0,0,1,2.11,4.55c.69,1.6,1.4,3.13,2,4.87,5.4,13.43,9.73,28.29,13.48,43.23s7,30.2,9.73,45.48,4.77,30.49,6.31,46.11c.77,7.89,1.52,15.77,2.17,23.67s1.38,15.81,2,23.72c5,63.34,6.65,127.08,8.57,191.68C219.18,394.62,226,330,226.88,265.09q.36-24.33-.48-48.68a470.08,470.08,0,0,0-4.07-49.48c-2.14-16.41-5.2-32.65-8.83-48.87-2.57-11-5.55-22-9.15-33.06,14.37-3,28.61-4.77,42.15-4.13a76.8,76.8,0,0,1,13.83,1.73,64.85,64.85,0,0,1,6.41,1.69l6.5,2.39c8.4,3.56,16.28,7.68,22.71,13.59a91.09,91.09,0,0,1,16.89,20.08,133.65,133.65,0,0,1,11.51,25.14,190.79,190.79,0,0,1,7.4,28.13c2,9.72,3.37,19.61,4.58,30,5,41.09,6.8,83.09,8.9,125.67s3.89,85.22,10,128.43c4.76-21.11,8.26-42.39,11.48-63.73,1.55-10.67,3-21.35,4.37-32.05s2.55-21.41,3.43-32.14c3.65-42.88,4.9-86.58.33-130.53-2.41-21.86-6.14-44.83-14.93-67-4.45-11-9.82-22-17.12-32.06a113.34,113.34,0,0,0-9-10.81c6.15-1.81,12.31-3.42,18.47-4.72,5.89-1.14,11.7-2.23,17.51-2.93A129.65,129.65,0,0,1,386.91,81a90.18,90.18,0,0,1,16.14,1.71c4.92,1,10.08,3,15.05,4.84a77.15,77.15,0,0,1,25.31,17.34C457.62,119.48,466.3,140,471.55,162a284.93,284.93,0,0,1,5.9,34.32c1.5,11.93,2.63,24,3.48,36s1.6,24.23,2.1,36.43.84,24.47,1.21,36.78l.85,37.07c.21,12.36.63,25.36,1.86,38.24.56,6.46,1.44,12.93,2.5,19.39,0,.27.1.53.14.8-7.91,10.13-15.69,20.46-23,31.17-13.78,20.12-26.34,41.7-33.75,64.91,14.14-19.76,30.2-37.1,47.11-53.79,5.23-5.18,10.54-10.29,15.88-15.39a141.76,141.76,0,0,0,12.1,28.87c6.73,11.66,15.7,22.52,27.09,29.84a70.59,70.59,0,0,0,18.11,8.1,73.06,73.06,0,0,0,19,2.37c-12-3.8-22.78-9.91-30.78-18.31a80,80,0,0,1-10.22-13.8,87.22,87.22,0,0,1-6.88-15.71c-4.37-13.15-6.55-27-7.51-41.21,5-4.74,10-9.51,15-14.36,34.92-33.8,67.66-72.17,90-118.28,11-23.15,19.21-47.65,22.81-74A123.38,123.38,0,0,0,645.49,180.34Zm-38.6,15.82c-.77,5.09-2.12,10.55-3.31,15.9l-2.18,8c-.72,2.66-1.67,5.27-2.44,7.93a278.86,278.86,0,0,1-12.13,31.12c-9.3,20.44-21.09,40.06-34,59.31-6.51,9.54-13.3,19.15-20.3,28.42-5.15,6.75-10.49,13.54-15.92,20.32.4-7.79,1-15.64,1.47-23.76.89-12.48,1.47-25,2-37.58s.63-25.2.66-37.88c-.07-10.46-.43-21-.93-31.48,10.39-17.93,20.49-35.56,32.95-50.17a124,124,0,0,1,11.3-11.91,108.68,108.68,0,0,1,12.34-10.12,59.13,59.13,0,0,1,12.43-6.9c3.94-1.49,7.32-1.79,8.91-1.27s2.41,1.12,4.29,3.47a27.92,27.92,0,0,1,2.75,4.38,28.93,28.93,0,0,1,1.93,5.1C608.74,176.3,608.71,185.92,606.89,196.16Z"/></g></g></svg>