<svg xmlns="http://www.w3.org/2000/svg" viewBox="0 0 429.31 479.15"><defs></defs><title>Pisces</title><g id="Слой_2" data-name="Слой 2"><g id="Слой_1-2" data-name="Слой 1"><path d="M300.31,256c7.21-.29,14.43-.6,21.64-1,35.78-2,71.56-4.78,107.36-10.32-35.76-5.76-71.53-8.79-107.3-11-6.94-.41-13.89-.75-20.83-1.07.05-.74.06-1.48.12-2.21,3.26-42.76,13.78-84.89,32.34-123.93a331.34,331.34,0,0,1,33.72-56c13.16-17.81,28.39-34.39,45-50.48-42.58,18.23-79.52,51.27-105.33,91.65s-40.84,87.93-44.37,135.88c-.1,1.23-.15,2.45-.23,3.68q-23.88-.63-47.76-.73c-15.37,0-30.74.13-46.11.43-.07-1.13-.12-2.25-.2-3.38-3.53-47.95-18.45-95.44-44.38-135.88S61.27,18.23,18.69,0c16.64,16.09,31.86,32.67,45,50.48a331.34,331.34,0,0,1,33.72,56c18.57,39,29.08,81.17,32.35,123.93,0,.54.05,1.08.08,1.62-7.5.3-15,.62-22.5,1-35.78,2-71.57,4.78-107.36,10.28,35.76,5.73,71.52,8.75,107.29,11q11.73.69,23.46,1.21a386.17,386.17,0,0,1-12.94,103.14,381.9,381.9,0,0,1-56,120.48c19.06-13.17,35.69-30.06,49.92-48.86a277.49,277.49,0,0,0,34.87-61.87,312.12,312.12,0,0,0,22.64-111.53c15.14.39,30.28.65,45.42.7q23.64.09,47.28-.42a311.91,311.91,0,0,0,22.63,111.25,278.28,278.28,0,0,0,34.87,61.87c14.23,18.8,30.87,35.69,49.93,48.86a381.9,381.9,0,0,1-56.05-120.48A386.34,386.34,0,0,1,300.31,256Z"/></g></g></svg>
